<mxfile host="app.diagrams.net" agent="Mozilla/5.0 (Windows NT 10.0; Win64; x64) AppleWebKit/537.36 (KHTML, like Gecko) Chrome/137.0.0.0 Safari/537.36" version="27.1.4">
  <diagram name="第 1 页" id="GkCj5dl4Ah8GR0vDSmEs">
    <mxGraphModel dx="984" dy="541" grid="1" gridSize="10" guides="1" tooltips="1" connect="1" arrows="1" fold="1" page="1" pageScale="1" pageWidth="827" pageHeight="1169" math="0" shadow="0">
      <root>
        <mxCell id="0" />
        <mxCell id="1" parent="0" />
        <mxCell id="44iAgMgQiu5mQ_kwNiWo-69" value="" style="rounded=0;whiteSpace=wrap;html=1;fillColor=#ffe6cc;strokeColor=#d79b00;" vertex="1" parent="1">
          <mxGeometry x="160" y="870" width="780" height="40" as="geometry" />
        </mxCell>
        <mxCell id="44iAgMgQiu5mQ_kwNiWo-19" style="edgeStyle=orthogonalEdgeStyle;rounded=0;orthogonalLoop=1;jettySize=auto;html=1;entryX=0;entryY=0.5;entryDx=0;entryDy=0;" edge="1" parent="1" source="44iAgMgQiu5mQ_kwNiWo-1" target="44iAgMgQiu5mQ_kwNiWo-8">
          <mxGeometry relative="1" as="geometry">
            <Array as="points">
              <mxPoint x="160" y="185" />
              <mxPoint x="160" y="260" />
            </Array>
          </mxGeometry>
        </mxCell>
        <mxCell id="44iAgMgQiu5mQ_kwNiWo-1" value="Console" style="rounded=0;whiteSpace=wrap;html=1;" vertex="1" parent="1">
          <mxGeometry x="200" y="170" width="560" height="30" as="geometry" />
        </mxCell>
        <mxCell id="44iAgMgQiu5mQ_kwNiWo-21" value="" style="edgeStyle=orthogonalEdgeStyle;rounded=0;orthogonalLoop=1;jettySize=auto;html=1;" edge="1" parent="1" source="44iAgMgQiu5mQ_kwNiWo-8" target="44iAgMgQiu5mQ_kwNiWo-20">
          <mxGeometry relative="1" as="geometry" />
        </mxCell>
        <mxCell id="44iAgMgQiu5mQ_kwNiWo-8" value="framework" style="rounded=0;whiteSpace=wrap;html=1;" vertex="1" parent="1">
          <mxGeometry x="200" y="240" width="120" height="40" as="geometry" />
        </mxCell>
        <mxCell id="44iAgMgQiu5mQ_kwNiWo-9" value="funtions" style="rounded=0;whiteSpace=wrap;html=1;" vertex="1" parent="1">
          <mxGeometry x="200" y="400" width="120" height="40" as="geometry" />
        </mxCell>
        <mxCell id="44iAgMgQiu5mQ_kwNiWo-14" value="rayJobMgr" style="rounded=0;whiteSpace=wrap;html=1;" vertex="1" parent="1">
          <mxGeometry x="440" y="600" width="120" height="40" as="geometry" />
        </mxCell>
        <mxCell id="44iAgMgQiu5mQ_kwNiWo-22" style="edgeStyle=orthogonalEdgeStyle;rounded=0;orthogonalLoop=1;jettySize=auto;html=1;entryX=0.5;entryY=0;entryDx=0;entryDy=0;" edge="1" parent="1" source="44iAgMgQiu5mQ_kwNiWo-20" target="44iAgMgQiu5mQ_kwNiWo-9">
          <mxGeometry relative="1" as="geometry" />
        </mxCell>
        <mxCell id="44iAgMgQiu5mQ_kwNiWo-20" value="routes" style="rounded=0;whiteSpace=wrap;html=1;" vertex="1" parent="1">
          <mxGeometry x="200" y="320" width="120" height="40" as="geometry" />
        </mxCell>
        <mxCell id="44iAgMgQiu5mQ_kwNiWo-23" value="FuncController" style="swimlane;fontStyle=0;childLayout=stackLayout;horizontal=1;startSize=30;horizontalStack=0;resizeParent=1;resizeParentMax=0;resizeLast=0;collapsible=1;marginBottom=0;whiteSpace=wrap;html=1;" vertex="1" parent="1">
          <mxGeometry x="240" y="440" width="140" height="150" as="geometry" />
        </mxCell>
        <mxCell id="44iAgMgQiu5mQ_kwNiWo-24" value="pyCode" style="text;strokeColor=none;fillColor=none;align=left;verticalAlign=middle;spacingLeft=4;spacingRight=4;overflow=hidden;points=[[0,0.5],[1,0.5]];portConstraint=eastwest;rotatable=0;whiteSpace=wrap;html=1;" vertex="1" parent="44iAgMgQiu5mQ_kwNiWo-23">
          <mxGeometry y="30" width="140" height="30" as="geometry" />
        </mxCell>
        <mxCell id="44iAgMgQiu5mQ_kwNiWo-25" value="call" style="text;strokeColor=none;fillColor=none;align=left;verticalAlign=middle;spacingLeft=4;spacingRight=4;overflow=hidden;points=[[0,0.5],[1,0.5]];portConstraint=eastwest;rotatable=0;whiteSpace=wrap;html=1;" vertex="1" parent="44iAgMgQiu5mQ_kwNiWo-23">
          <mxGeometry y="60" width="140" height="30" as="geometry" />
        </mxCell>
        <mxCell id="44iAgMgQiu5mQ_kwNiWo-26" value="ws-call" style="text;strokeColor=none;fillColor=none;align=left;verticalAlign=middle;spacingLeft=4;spacingRight=4;overflow=hidden;points=[[0,0.5],[1,0.5]];portConstraint=eastwest;rotatable=0;whiteSpace=wrap;html=1;" vertex="1" parent="44iAgMgQiu5mQ_kwNiWo-23">
          <mxGeometry y="90" width="140" height="30" as="geometry" />
        </mxCell>
        <mxCell id="44iAgMgQiu5mQ_kwNiWo-27" value="demo-code" style="text;strokeColor=none;fillColor=none;align=left;verticalAlign=middle;spacingLeft=4;spacingRight=4;overflow=hidden;points=[[0,0.5],[1,0.5]];portConstraint=eastwest;rotatable=0;whiteSpace=wrap;html=1;" vertex="1" parent="44iAgMgQiu5mQ_kwNiWo-23">
          <mxGeometry y="120" width="140" height="30" as="geometry" />
        </mxCell>
        <mxCell id="44iAgMgQiu5mQ_kwNiWo-30" style="edgeStyle=orthogonalEdgeStyle;rounded=0;orthogonalLoop=1;jettySize=auto;html=1;entryX=0;entryY=0.5;entryDx=0;entryDy=0;" edge="1" parent="1" source="44iAgMgQiu5mQ_kwNiWo-25" target="44iAgMgQiu5mQ_kwNiWo-31">
          <mxGeometry relative="1" as="geometry">
            <mxPoint x="440" y="555" as="targetPoint" />
          </mxGeometry>
        </mxCell>
        <mxCell id="44iAgMgQiu5mQ_kwNiWo-31" value="rpcCall" style="rounded=0;whiteSpace=wrap;html=1;" vertex="1" parent="1">
          <mxGeometry x="440" y="320" width="110" height="20" as="geometry" />
        </mxCell>
        <mxCell id="44iAgMgQiu5mQ_kwNiWo-33" value="functionApiSvc" style="swimlane;fontStyle=0;childLayout=stackLayout;horizontal=1;startSize=30;horizontalStack=0;resizeParent=1;resizeParentMax=0;resizeLast=0;collapsible=1;marginBottom=0;whiteSpace=wrap;html=1;" vertex="1" parent="1">
          <mxGeometry x="450" y="340" width="150" height="120" as="geometry" />
        </mxCell>
        <mxCell id="44iAgMgQiu5mQ_kwNiWo-34" value="jobInfo --- dispatcher.invoke" style="text;strokeColor=none;fillColor=none;align=left;verticalAlign=middle;spacingLeft=4;spacingRight=4;overflow=hidden;points=[[0,0.5],[1,0.5]];portConstraint=eastwest;rotatable=0;whiteSpace=wrap;html=1;" vertex="1" parent="44iAgMgQiu5mQ_kwNiWo-33">
          <mxGeometry y="30" width="150" height="30" as="geometry" />
        </mxCell>
        <mxCell id="44iAgMgQiu5mQ_kwNiWo-35" value="check jobInfo status" style="text;strokeColor=none;fillColor=none;align=left;verticalAlign=middle;spacingLeft=4;spacingRight=4;overflow=hidden;points=[[0,0.5],[1,0.5]];portConstraint=eastwest;rotatable=0;whiteSpace=wrap;html=1;" vertex="1" parent="44iAgMgQiu5mQ_kwNiWo-33">
          <mxGeometry y="60" width="150" height="30" as="geometry" />
        </mxCell>
        <mxCell id="44iAgMgQiu5mQ_kwNiWo-36" value="resp" style="text;strokeColor=none;fillColor=none;align=left;verticalAlign=middle;spacingLeft=4;spacingRight=4;overflow=hidden;points=[[0,0.5],[1,0.5]];portConstraint=eastwest;rotatable=0;whiteSpace=wrap;html=1;" vertex="1" parent="44iAgMgQiu5mQ_kwNiWo-33">
          <mxGeometry y="90" width="150" height="30" as="geometry" />
        </mxCell>
        <mxCell id="44iAgMgQiu5mQ_kwNiWo-40" value="Invoke" style="rounded=0;whiteSpace=wrap;html=1;" vertex="1" parent="1">
          <mxGeometry x="680" y="317.5" width="110" height="22.5" as="geometry" />
        </mxCell>
        <mxCell id="44iAgMgQiu5mQ_kwNiWo-39" style="edgeStyle=orthogonalEdgeStyle;rounded=0;orthogonalLoop=1;jettySize=auto;html=1;entryX=0;entryY=0.5;entryDx=0;entryDy=0;" edge="1" parent="1" source="44iAgMgQiu5mQ_kwNiWo-34" target="44iAgMgQiu5mQ_kwNiWo-40">
          <mxGeometry relative="1" as="geometry">
            <mxPoint x="770" y="612.5" as="targetPoint" />
          </mxGeometry>
        </mxCell>
        <mxCell id="44iAgMgQiu5mQ_kwNiWo-41" value="FuncDispatcher" style="swimlane;fontStyle=0;childLayout=stackLayout;horizontal=1;startSize=30;horizontalStack=0;resizeParent=1;resizeParentMax=0;resizeLast=0;collapsible=1;marginBottom=0;whiteSpace=wrap;html=1;" vertex="1" parent="1">
          <mxGeometry x="690" y="340" width="180" height="150" as="geometry" />
        </mxCell>
        <mxCell id="44iAgMgQiu5mQ_kwNiWo-42" value="select and get jobMgr" style="text;strokeColor=none;fillColor=none;align=left;verticalAlign=middle;spacingLeft=4;spacingRight=4;overflow=hidden;points=[[0,0.5],[1,0.5]];portConstraint=eastwest;rotatable=0;whiteSpace=wrap;html=1;" vertex="1" parent="44iAgMgQiu5mQ_kwNiWo-41">
          <mxGeometry y="30" width="180" height="30" as="geometry" />
        </mxCell>
        <mxCell id="44iAgMgQiu5mQ_kwNiWo-43" value="wrap job req" style="text;strokeColor=none;fillColor=none;align=left;verticalAlign=middle;spacingLeft=4;spacingRight=4;overflow=hidden;points=[[0,0.5],[1,0.5]];portConstraint=eastwest;rotatable=0;whiteSpace=wrap;html=1;" vertex="1" parent="44iAgMgQiu5mQ_kwNiWo-41">
          <mxGeometry y="60" width="180" height="30" as="geometry" />
        </mxCell>
        <mxCell id="44iAgMgQiu5mQ_kwNiWo-44" value="invoke(job_req): check job req args , create and wait job. | pod | dagsterJob | rayJob" style="text;strokeColor=none;fillColor=none;align=left;verticalAlign=middle;spacingLeft=4;spacingRight=4;overflow=hidden;points=[[0,0.5],[1,0.5]];portConstraint=eastwest;rotatable=0;whiteSpace=wrap;html=1;" vertex="1" parent="44iAgMgQiu5mQ_kwNiWo-41">
          <mxGeometry y="90" width="180" height="60" as="geometry" />
        </mxCell>
        <mxCell id="44iAgMgQiu5mQ_kwNiWo-45" value="" style="shape=image;verticalLabelPosition=bottom;labelBackgroundColor=default;verticalAlign=top;aspect=fixed;imageAspect=0;image=data:image/png,iVBORw0KGgoAAAANSUhEUgAAAtwAAAC+CAIAAACJaE9GAAAgAElEQVR4Aey9+Vsb2Z3/+/0r7r0NqEo6JZVAgAAtSCBAMhJISAKJXeybdgkQOwYbjBeM8dK2u223933HC9hgg23cdrc7k54k49w7yXRmkknyTWayTWaSWX6/36MqikIIITBtY/d5nnp4ilOnzvI+pTqv+nw+p+p/YRiIfuMIMjRGQwpBRH/KO8kplSowDOA4bCeHw3snbUCVIgWQAkgBpABSACmwJgX+V/S547jxqbllGmVS9Ke8q5wISt6V8qhepABSACmAFEAKrFuBaKEkjhsv1pToNErAXYNlZd3NesMTEZS8oYDodKQAUgApgBRACrx9BaKCkjhufFKOVadR8rnct9/EddSIoGQdoqFTkAJIAaQAUgAp8G4VWB1K4jB+fKZVl5tFAsDl8t9tc6OsHUFJlEKhbEgBpABSACmAFNg8CkQDJbJMc7XJWsVsqmQU6Poe+LA2z0WGWoIUQAogBZACSIFoFFgdSqIpZbPlQZaSzTYiqD1IAaQAUgApgBRYVQEEJcjmgRRACiAFkAJIAaTAplAAQcmmGIZV4RFlQAogBZACSAGkwAevAIISBCVIAaQAUgApgBRACmwKBRCUbIph+ODhF3UQKYAUQAogBZACqyqAoARBCVIAKYAUQAogBZACm0IBBCWbYhhWhUeUASmAFEAKIAWQAh+8AghKEJQgBZACSAGkAFIAKbApFPi2oATHiTVtHJy3pi0yLabKlJEzfPBHcQ6xpu2DF+QD6yCO8da0fWDdR91BCiAFPlQFNhhKACBlZUrjsLXkiK3kiM08ZFVVqnHh6oCyJiLh4LzI44GgZE1EgnM2+yt6Iw/3d/DomogEx1b5vXwHBURdRgogBTanAhsJJWRCvHHYmj9olpmVQlWiUJUotSh0vQbreFmKVhrZcIKgZGOvDwQlG6vnZisNQclmGxHUHqQAUmBDFNgwKAGANA5bSw9XycxKIOcTUiGzpZRKiw6WSS2KCFySkJicbs7MtOVIDOkCYcKqjBK588hSgqCEvkL4mWVDF27PvLiztSDyNfN+HUVQ8n6NF2otUgApEKUCGwYlsjJl/qA51SqjuIQhEmonUZ9SdHBFe0mWU1N6qKqg27LFri/otpQeqspu1EbmksjdWw4lsixdu15Kgk0RyBO58RtyFEEJJaOw8uP713cWSoQbourmKQRByeYZC9QSpABSYAMViAZKJEqjjflEsMGsCzu1G4etqVYZkPMpLkkxSUO4JKVUah0vWx5fYug063oN4iyJQJFAbSKNuKDbkhcw8QjBSmgSWYJQKAGi5nb/3+4osBBRBU+QeWVf9RpzsDcmGCCqbKx7Ptb6+pD/6x1Fejyq2iN3LcqjOIeI5aU0HJ/9pEURAVBiOQrXqdnx8viQYjnJTUemnj8825kOACehas+tJ/ev9mYCLCTb5v83peHE/dNeMfeNhzLixSCUmorK7fVN/oqqMrU0cWNlScltMivhAOGS4jpvg0oIr6LlUILxcwvLC4UgfADsxjQJiGT5taXVhdLofkcbU2lE5VEVSAGkwAemQDRQsnBDByKZxqpTpoaVoPRwVbwyCcj5FJeUHLEt5xJdr0FRqmI7cVJMUvOQVahIFCgSao43URuFJoU7SiWG9I2BkuB9LSxLhe3LhkGJ1HBvrM6XIgSABIAMW9e3lPjmUHJw8uzBk2ddcoIsP3DyyJErFwfeRyghSvc/vNyb8wZQQsaLa5vd1Q53Ynxa2MESqmqcrX6TVi2VKqTqyvrW7ors8L+RsKevmigr66/VBQsEIolcBskwLJTEG6s8VSkrrMpZtZZVM+BCdUFLR0O9x9XWhKBkVblQBqQAUmB9CkQNJRGJBMMAG0qAnC+1KJZzidSiMA9Z2VBiGDBLLQoKSiguYewlMMTEmvPmUFJq97w+5H99yP+3/QVK3iJgtfd6LtTrTvQ23dvZdM+dpw8+gIoKbN872P76kP/vDvqo7avOXDH1rEZKOl2NcyP2l0P1p21yOhED+TX2ea+xz113b5tjfluJT7HoKQAK89TuolICZ48NEKUP+ps+H/d/f4/jpiNbQ/Kpo1xS1uatfzrq/sG4+6pjC9UeDANU+twe+6uRpnMV6amAzs8uc/n+ciiJERvd+y7dmX42PXnn036bggfXDFOWksP9/n2XHj2YfnRpzJtDQok4yU2HJ486W88ca8kr2XPB3zTEQAknudh78MbE9PzDybsnd7RQ+WOwdNeZZ0cGukZPXrl05/7FMR+VDhuWbPUdvH53+unU5P3PhpuZdK6yceTs9NT045vHtrfvuz0xXET1Ii7J7Np3+fbU7P27Ewc7Sxkjh6Z74u6hgcD4mQu3Hk6cO9yUE5VBglcwcuP2zjexUdm9gaHxoyPjnzS3BsLozJeb3f1F8kVTE6GodLbWygHBA4qcAg2FwhxMmlmgS8aCpjIgkmwxG4vL8vPoo8uLZacwUIITiwXiZJpcYyksLi/QqAiMA9fXBKFEnqrOM1cWGvQpJDSZxJLybJ1aCKjVN5IMnVZEmbtIiVxjMVttBRoVRTnsGql9XJiSGPxRUP9yJYb8jFQ8wVTTVoegZLlcKAUpgBTYEAWigpI4jE+mmc1ma5ZSuZK9wThspUJcKWMJIRWmlEpDuESoSiw5YmNDSckRW6I6hZAKKRapOd7EQIlII+YRggczz8JySeTOh7hvACAhbXTnhUDJE3eGjEdyBZKuXseVYjFVJgAkbSkJTs9UYgxGVrTYHzVmQBYhJZ099vPmBOpQfo3964EikxCSh9bW9FUAQgxQmO/tdnwx5vnBuPuLMc/z3Y75fqMeJ2IwstLueNiUIyO5XFI2NOi+WZ5MlVPR7HzRkZcnFvLJ1LY252yTHGAYrLfZOevITgX8ODJ1oM9+qURE5Y/8NwRKYjnC0l0PJsYaFQkEKS7qOjd92gXdOrEcRcupZxMH3JkkyUkoaD335Iwnh4ESW5b7yMmTR05uVRfsunERum9iMLJ41/SlHdViEoBkc9eF2eOuLAwDFJTc3F0jxkAckes7w6STJbseXt1RKSZBXJK55yKdjmGSmoOPbuyC5XBTrT0XZykoicFg/ivDFWIu4MXrO8/NfGLPoHqq6Z6YujSkF0INNYErU8edDK+sJEUMRipaTtw52rJqzpVKwDDg7R2ioKS1d3h5Nlxa2uyxpfAFyw8BkbG2tVoOKBDJKWttzgA4BkRKW7e9riQn26ArC7gdRWlgkWKXF4JhgIESIDLWeRukBBFLqMzO7nKzXq5U66q7W0wKCkrqOnrqqsozsrRZJX6PoxiyyIL5BI4RN6fM74bmLpBJnZ6RpaVOD1tvalGAttCwHCgISsJqhRKRAkiBjVIgKiiBlQERmZwK3Tc6ZdhHq6xaTX6XmSISZvVNiL1kTVAiSIFrcF6//ubNoQTDAJlXthxKzhTQLhVjg/1pUzqjaTj3jWRgq30sk34glltrvmoLejMoS0lzJnUuqbLO74DwgQGRWCSSacxzuytcKYlikUgiCuO+KaqH8IFhIA6kDgz6j+TRcxtXLCvPTAEYFgdShwbd+1Q0AGVaal+1ZoTVn2k8tRMCJR8ReV3XprcXCKj4EqXn0sMxG8HBKUvJoaok6ix5+82psWoKSg5MHq9MUDlOPTnXnc8r2ENBSUgtuX0Td3ZYGCg5WEUDFpO+PD8FH3FEbsfFZztLaT1z+yaY9J6rk/15tEFL5rwwPV5D9VfTPXFnZylVINc0evfaQASnDEdQNzb71ZP5Fw+vH6rLXGXWD2lkyL/yjOzOodGeob0qlTrkEHSjKGqcdWaK1HG+XKHSqtValUqdTBJhoQSXFNs91TSIAJGmtrt8teYthxIMAwSZTIWVYHKbowmGkmDxxroOh4oUQAMJJi/0ONTkClCCAZJcQFu5zd5oDfukgaBk+XCjFKQAUuDbViBqKAk+LcXwZFkGg0QQxoMAkvmWA+WpBhjrykBJiL1kJfdNWEvJ24SS/JrGLxaeyCmCWRboKtk54v9qZ/PciH1uxD4z4p73hoGSkNEK676Raczntzke77Q/3ml/OupmoGRo0H1QG/rAHQdSdw77X400zYw0wm2P+5knI+wUElJ1CJRw8IK+a5NsKHl8oJaBEibQNbP1BhtKahIWpnPjKGMpSSkfPHjpwa2b92/dvD8xPc+Gkn3lNDyxoSS1fGD/hUkq/63pzxn4CA8luHHrnWdTk/dv3JqA292Hd0bDQElIZ1f6NwYjpQ2f3D/fmc5fcNuxHvpXOiskHQBSnpGtUKjCRgXh0lJnU1kiF/pH8PhsvaWmqNze3BrIE+NhoYTIcfjLNEwVKcYOh1HB/Bt2JyyUiOTmwipHlaPD4ejxOIoTMQFlFFEEA11jMbnO6dcnEuEtJRgQyc1mm7vWHmh0d/vtVsYXGWyARFMf8Hl7HJ3DrZ19Pm+Pu0zHcDCylIQdI5SIFEAKbJQCq0NJHD81VUmH12G8VKXBHBZKoJ3ZrCzZa4vXwHBX9tIbxl5iHrKGvK0kQqArtfTm7VhKooGSga32HZnc5brDmJIFS0nI0TBQIso8MebYq6bjIYzVzQyURLCUjKiifSMnqQ+M95QlYdygRUTacHz2aF0qziGWQ0lYS0lG+9XIUAJX4kzd3mqiQz4Z+KDcN2GgJMG29+GdARMd+MlYRCj3DXTTLHXfxBG5bEsJW0+2pYSdHnmfaxqduD20vpgSeUY25buh3Dcj45+09g4rFCp2jUCgq2j15yazMF1gqG+1Z5MERuYz7psYkGvrcGYAHM9sctcuzvGpZd1N+VJ2gcv3lbZtlBuFcd/g6VUOT122LIUAApBc1tQUFZRg/Fyb3w5RWm6zuxuzZSmQbtOs9sYQKAEAkIQwMc3S0WiQCYUwTJtpFYISRgq0gxRACnwbCkQBJdxUpdGqTE2CwRZpZp0hUnSe0pZVsteWapCxoYSyl1QcqzUMmGMJvLd/iB1WQi0JFmnE7GiSBGky5bXZEChhYkqyBAurYICovdfDuG9CoARssc4PlVTAmEB6o2JK7tkz0uEdW9zcYjthpifmtULJ6bGmfVpoUeCLlDv7/BSUYBioaHY+a92iIfkhMSXVTu90U4aS5HPJJKez/ngRHfvCtI29A9Td52eudhuVBE+YVrj19PR1TzYvGDsitOy9R8WUAImRiimhLCVUTEm6COBCPTum5MDk8eWWko8S6vbN3NtugS4nkFbWd+bZKpaS5Ma9D+8MWWQwYjfV2nOSjh2B/8psW4/dmZp+fPXYSNeeeyExJel8AOJzGnee2duYTXVwfVCSWPPJw/Nt67OUuNu6h8aPUtvI+CfU5uzoZguOYUBqavc6bIp4aOXC+XJdbb+/TAMwjANUVn93YboQA6KUfI87CCUYmW9rbcsLvjcFiIy21rYCSXCJrzCICAvXmzDX4280kADghMLs7rcqIfQwUELkOHwNegLjxGICcUEggqUkFmRb2wIWaWIMRorz3O5uCCUg2+5r0FPGD3FBYJmlhL7mkfsmZKDRv0gBpMBbUGB1KIHzR1KWxlBmMJfpdIb0hMWFBmHbJzMrLQfKdb2GFJOUedm8echqGDDjQqK3f+iHP/4JG0pwnGC/PC0vYCo9VMUjBJN3HxWZS16//sZoKJq8+4gXK2BvYatmEplA11g8ZXjYRa2+of+O24cVMOYjApTE8cTNrsavDrT93UHf194c2nYdXH0zv8f99ajzun1L/kIY7NqgBAMag/X2bhgAO9tR2OusZ6CEvfrmjqcgZPXN/D739/c4bjXnMulMZ9k7MRgprx4+cu3B9OyzezdPD9aoCQ5OxZHEiI3+g9cmZ1/MTt5cafXNubE2ZvVNWCiBoaN1u47devJweubmse2+kXuRoSQGI5V1O09MPKNW2fhGaPhgtxnDQP7g/RuDRiqRXn0z8+LRzPTJna6ceHqOXDeU3L88UCAORpsuTPkhtb/pv0Ak1buaO/o9nYOtnX3V5QYm7jUx10El1hZWU5YSGA6SXm7z9Nodne7WtuKcoJkEiDSN3RR5UI3BCYWutt/j7XJ09tmt9GMAAyU4odDUB5ocnjpHa12VIxKUYALRFru9Y8jf0Wszl9GWEkyia+62292Ndn+tze22ly1139CCk2kaRcqC/25BOmQpedOrZUFJVA5SACkQVoGooCTsmRESQTJfUaMy7DQzn+WTWhSUjeSHP/7JcijBcYJ5zXy6OZN6zbzRUPT85fdfv/7m+cvvF5lL2ETCiw2NvQhpDAMlIenfnX8jvDAt7KF3pQwAJF9WxlqVQ8+IG9UeXry+cfTK23nNPNvNwbQ/Blswzi2djQTk4pJmDlAVe33UW9GYE+EOEIUtE8NALCYgyGQCwLDWVbdYLMzvBZBwBdWS6pa2EB1CCiAFkAJvX4FvBUqgHRsP/TIwZSNZCUqWL7HhxQqMhqIn86+MhqIQIkFQsuqFEpY8IiSuWuCGZ4jDjVtvvpp79vnM9MMzu5zM+0s2vKL3oEAyv6retCZEWBVEQjK8ByIgJEIKIAWQAhj4tqDk3d4EpVK4ogEPvtadw4k2SvTdthnV/t1VAIiEwlBHyXdXDXRfRgogBb7DCiAoQRZspABSACmAFEAKIAU2hQIISjbFMKDHYqQAUgApgBRACiAFEJQgKEEKIAWQAkgBpABSYFMogKBkUwwDomOkAFIAKYAUQAogBRCUIChBCiAFkAJIAaQAUmBTKICgZFMMA6JjpABSACmAFEAKIAUQlCAoQQogBZACSAGkAFJgUygQBkqo957FxXFxnKBe8hEXF+ZDdJsZ6NB7Sjbz6KC2IQWQAkgBpABSIKwCoVBCvXCMy+Uz7xzjcvlUYtjzNypRkCSUmZVKW1aqQSZIetMXSSEo2ahxQeWsW4EYjEzNLStIpz+7E59TZs6iv5a87jLRiUgBpABS4MNWIBRKOBweh8PDcYKyjrydl6Kq7XnFhyr13YVqe56+u7D4UKWqccub6I6g5E3UQ+e+uQJcsdl3fPLhrQuOHJqwU2x7Lkw9vDBSL+PDT/6iDSmAFEAKIAWWKxAKJZTvhsrH5fK53MUbKDdJpzPq4sEGu3K0gQJ9d2G8JkkgE1JbvCZJ312oDRQsb26UKQhKKKHMtfbnTfCN+6tsQFTbWPtsf+vrQ/4fDZv1wdfzr3LKqmWunCEGI5M7f2O78d+2G/9dfWlGsvC95ZXSN7wl3KL7ZQfGovnWDGxS75+optpu/HfZlb8YbFnL25MU+KYkUM2kx/GzWo7P3tgTyh9xYmvXudkrW43RVM2UttIOzkmpO/bsE3vGShnglxZ4CsfJZ+M20fI8pt2zc88+Z7aw5egG7k8MWZefu1Ep8VKjocJe2+yurbZlK5I3qliqnFRts1kJP2nOlZbU+xqV8Yu3MnZFuEBrrDSL8PBH2TnRPlIAKfAWFAiFEspZQxlLGHsJl8uP46amGyqyUuGPfAM3qVFu2lEsSIc4Un60htooNDHtKE41yNZXF4ISSrcooYQnL5jcX+UREwCQGzJfrj5qQIQBEVc+arz4kIESeNZK6Rt61UUPJVST4rgy2bbfF7mLVvpmbwiU8Iy7btwbLxbRjhu2Gtzc7gszZ+okb+qghMDxZlACAMnlSWoOvzjXoVmpX28CJcLElJoWX02LT5iYwlaA2eer6u2dgWLtlrSUDJm6wtbWbdMkMUfffEda3lerC/rLgEgmTwcYFrZMPMFU7aqVEAhKNvLGHlZqlIgUiEaBUCjh8QSUsYQdVsLh8Pjp5vzcTMDd4AvX1F+sKMqgoITiEsZeAkNMrGGeSqPp1duEEr5Sc6TX9WLU9WqsZdpvMglx2EJeam+f+9M8kmptXnXDCzdtseArNQcHWkLzA1FXr+d8Y96RzobJnQ2Tbr1eSE9pQCDrcjc9HnO/2N1wvlIl5Qe/L7iQ/7Puxoe77ez8eGr2gX77l/udswFLv7sxGksJT14wtctayTKQ4Nzkrl7PcR3dfp3N/tKlhH1ZqPdkV9P0Lsddn45p50rjwkmuy9r2uuzKX8rO/Kqws48NPWGgJAgfYdN5yVWKgR/Cci58ow+0MuVwEsoVAz+0Xvi3siu/0vdvF4noS5STXKca+jFVr767h8rPLXnMmD2onbKxHdR0RZdz5rfWM39vcNuZ8uGjNjdVtu33RruR3UdOenv2vl+UXfi9dezTjJ6fsS0l2R13Hu6rDjsLcvjarmuzu8oS2EVxxbW7br2YON2m5K/BDBkCJVyx2X3gyu2ZF4+m7hzfVi/lweuHspQc6m/bc+XBzOzTS/v8mgTWTxiIKg88O9+uXtKY9NrtF2DmGycGArsn1m0pafF1jYx/MjL+SYuvi10+tR8HlIWuHqtyEQW4imq3t1YGuHFAma3PpscLyDL0W1JBMBsQydRFZkuFQZvLHp3lhVMpDJTE8ZVZeTl0gXyZbEtRkcVm2JJJpVBQkinV5FtqjXoDTSeEMlevoWvBUzP1BsqUAghZptZqKi7Nz6FPX6l2lI4UQAqsT4FQKMEwwKy4ocJK4uK4JCnKMpol8XBOIskwpuD11Y1hoPxojTAnISyUxGuSACAfzMyuo/C3BiUxGOlsa7tVLYH3LyCqa648UCiGDV4BSmIwsqnNN1GVTuVvsNd9rE+E+YGovbf1mVsl5nExIPIFPLcr4fNlDEZW2h2PWiCL4Hx5X6/jvGVJfimfR/DTuno910thegxGNrgds261lM8TJmXvHWiNDCW8jOL7u91fjvlfH/K/2uV4scvzss+gx4kIUNLe2zrvymLqvVEa7O8Klgycmyzv/Y014AaA5CSU5xz+o6FRwwxoWPiAEBDGgiKW9/7G0t8jIkW85KqM8d+Za3WUbmmdv7QO7RaJRbyEYvnQb4o76oLpMH9hj4ept6Apj64XiKCl5PDhJH4SNMxQGMRNTRv4pbnbTQLASyjOGP+dzsZq5zIooWwnxm4vLF/iyjn8RzaU5G2dvrG9iK5uqTJxXJnr1LNDtUtE48SbAoevfLanPpW7XigBosI907fGmlUJiXyJtePs7Gk3dOtQUHLrgDcrgeSKza1nnixBkGVQwuVJKg88uzZikwlIfrpt+5Un64aS1t5hCkpae4eXS8GVltidNpo2lkqEJ5hqvTZZ0E0cy1OXtbmzSPijUFX1OapLs9T52uJ2T7Ml7LnsihgoobBDxufG8ZUmT19ZYb4yO1df12U3Q86GR7u6a6pKc9Q6TYnf5bCIcD4eX1DTWkMBSiw3u7S1JZ3gYoTS7OyvthjSVbr86s5mYzq7OrSPFEAKbIgC4aGEWQwMf7Q4kZOTqwsuHIiL1+gMCw8QS28l62tNBCgRyKCJ+0evf7qOkt8mlDR7vdOeLWZZqkSw+NgXAUrqvK5Ztzo0f9ACcdpEW/WzKxpe+VWw47zU4QHHPhX9YC0vrnvlV8FH8KX59bWOJy3QEhPLTRsc8BzUCijRVnffAFFKfLJMY53ZW9YkTpTGJ0jjYV2RoeSUgZ7LzbX2z1vWcGtObvsnc6CWGdAw8EEhwjIo+Yhryfn0f2sMtMLChr8t2+aHAM015Rz+o8ZMm/05aeVJukWYYCpKbvsnGlao8pfFlNDl6+hy4uv/pmxbgDl9uaWEwzVlfvqvTHviAz9nQ0nB9tlbgwbmdPZOWChhZ4h+n20p+Yiv77k6vd1IXz8y75WpMWiqoS0lCwykCFyd2lO2WMUyKOHwtR1XHg1b6evnTdw36RmanqG9PUN70zPCjAi0izSbKVMEF8jk6rwM9ZZsdXYq4IeFEq60pMlbyZhMtHV9ZVmruJKXQwmGAX48fRZXUe10WUkAoaS+3Z0pDF5ahLLU48sRcsNDCQaAcMHBJKl2NpeIMNqUuCjpRtwVUWlIge+yAqFQQvluKCcOFVmSkJCs15vEAFp9NxxKTH2WdIuSTBcJFAkCRUL50RpqR6BI4CXCO2MIlES5OPmtQQmGASDO6XVW3xp0vxr3vdpa7pLCiYHLE3f0eY5q6Uk0r7rlmUNOXWfc5PQBny0kPwZEgX7/KT2dX13W9Ko1G2BYHE+yY4f/1Yjj4Ujzw5Hmx3uc864sysoS6PcfNyy4h2qaKPdKHE+ybZv7UDZ95y1ocES2lFBN4qWbZkZLyniLhn0uT9zd7z6mo11IeTVN885MmDnYzpMGevLLq2n63B5066x8L+YXHDfs/0frZ7+C24W/sOEAl+0xXnwoEyzWS7VneTqHKFef/KVaR8OZsOFvy7d3QCjBCxVHfqc1hImRBOYV68XMt0oOHqBmRKrGYPn/UXrqZ5ZTv4DbuX+xbvVSh6jRlG37vclhYlI4eKH62O+Y9iQFvintqGGOardNrmQp4XLSPaefHawNmrtWFo0pKsJOHEdSc+zJ0aBbjUPkDd58sFVPw4TCd3n6YBMJQBwv03X2ORPoqmq/PrXXtuhXAqKK/U/ZthMOkddx5dGOIvo6zB28f2t4nYGu/8fMKVWopApV2ICVOFmZo6U4GYcN5gm36C2VxaWOpvZWQwrJExbU+arkBDzEwbOLfY4MggfUdmflItyITYGWAmkEcTAMpFf0NuRBcyOeYKrx1Uh50K8qUphNlS01ri6Xq8/nKk3hEdRRyigCCJnB6Tckg5WgJD7TaqpqqXS0N7v621rKUoI+ssjNQEeRAkiBNSkQBkrYq4I5HF5SUmphYbHBXJZvrjAU2YyGqBy6UTZCYpKZhi0UlCwGugYBhbqXbX4oWewpEJU30/BBQQkDGYX1LfMtyyZvVv4QKNlS0fDCA83vEEq22Xdm05MEu64IUDK+hc7/hlDCwEdBg+NZY3AOWCOU4Ant2vP/oDbQQJbk/2adUIIXqo78hoEACCVbPXDSIvIUR36nNtOwgkltKZrgYvJEt+7M36sNaZRiIfWGgRK8UH30FyoNPakv6kxZVnjisFDCwFB84OdsKFEHVo4pIfJ6rs/utKzylB/SAOZfvrF7bGuFmAthlMtLbzn55GijhAw/IpUAACAASURBVNKh6+qDERMLSvZVBaEWQgnjLcrsujG118aUhq0AJbtL6OatD0qkCpW7e9uOA58ym7t7m1QRtPwtcBiHyCtv9+gSF3mUJyyoandkCwVwx1dHQwmRV9UOoQRTNXprdAxOSUo6KeBY7MtCyUxKekVvzRYIf4tQorC1+FrUihQSAJBS1tKyCCVyAPmbBxQFjg5DCokL9bX+RioxltDa/PYMgHMV1XZ34xYlfXpzixVBCaM22kEKbJQCoVBC+WsYgwSPB29zBCEEfBHgi7jiDXbfYBjQd5n0XSZhTjJjI4H7KfQ0s+mhRNLW6b1WQseUVDldDHwUN7ueteZpBKQgLfvQsP+cKXijB6KOPs+10lTK2rGYPzjZU/m5gvTufvfdSrhwIAYjq5yuKVeWTAD4AonDVXXcHAxHCOZfbimJwcg6n2fGngPzJ2Tu7nevz1KCYaCwoellWz7V/gMj3rNmOpYl0O9nYGVVSwkbSojkFvW+Py2BkuQ+w5XXao0cAyL28zROp6cx6VyeOHXbby1bu/gJIizRlnXg93l1QfgAotTu35bsHI1PFoPEMuWO39LlCwOGC9+ozcHlsimNqoNL6sUMl4pO3khNEC/GlPDESf2/Mvc44xPgk7q8+wttGSsGRZBOQQnTyDieRLbt95YeF0xJadQe+RMbSoSFu+7c3V+RuAwlMcBRd5yfPlGfsuQQR1jYduzCZ3vqJasFknNzAuenr/daZACQKYWDp6dvt6rpwGfL7umre5qyEkS8lML2s4+O+2CQOGUpuXPQoxLByZ4dUwIAiYO06o8/P9elY/qFg7SK/U9v7bJJSQFPWr79ypN1WEpc7X0MjjA7rva+kHtWqjnQ2lIlDxpEeUSGtq7PXZEFMIxDZFs6usxSuD4r1eD2BKEEQkybTy+HJjpOYl6Vt12bBjECkMGf3gKRkFq3t0ZHAhDLU+Q7ey0ZMD8DJUBtZ8hGbAqwLSUhUMIBqvLWHroNeq+7OwglqmZfbR4FRmJTAFlKQgYU/YsU2BAFQqGEWhKM4wRcBrzwpnnmbSUb7r6h+qBu0cKXp3WZ1C1afZep+FAlAOTtyQcmY/GPXv/UZCy+PfmAysnQUuTOv033jTjTeKrX+Wrc9/UB72xHcU0i7fLgCtJbvTXze/0/3OM4V6NM5dErEpMz8k4FfT1L8gch41yN7mif+6sx57QnzyCgXTNcQXqHs+HpPu9Xe+3X7Dl0+gpQAh+g03LGemB7ZrrMW13rdN/AcgTpra6mp/u8X4/Wn61V0e0P1hs9lMRgZFL5Nf2xP1kv/Kpo56mswZ+yoQSiRtOc5ex/lV35b9uV1yolTaJUuukikx40ACTasoZ/ZL3wl7ILP9d3+BadL4k25eDXlov/UXbh5/kDO5OCq0tiMFJkvaY/+buw9XKIPPm2/6/06n+VXvtr2fY2+lpKtGVs+zvLpT+Xnvu1qWc4PgHqD9/K2v9vpdf+Wn6d3vS2hfeCSN3qsV+UX/5D0b7PFP0/YUMJl5fjOBF8T8lSzxQvpbDnfJj3lHASq3bfmbtz3JfJX7QchL3CYzBSWjX86dW5mbn5ezfP99bAWZzKyUsp9B68MjX3cm5m6tjWKlnQGUdByZGtrfsuPJqambu2368WBSEGA0V7n87Nv2S2T5tpSx5PUQdX38zNXz062LZn/e6bsO1fkghEMoO9qX27L7DVF9haV1pAeXMwDCTp7K4ATK+ylNOWEgwARVlVW1+Ts93R5rNkB5cZA1Fu/QBFHnTJZHpudaenrc/V3ldfSke/MVCC86T59b0tLl+Dq72msiWCpQS2Qet0d29zB7pt5jLKUsIDiry6Hrfb32j3V9e4nS7kvlnlcl0y3AvgiBKRApEVCIWSuDgu84J5ODMF3zHPTolc3LqP8hIFUmOGqnqL1JhBRZOYjMXzL7/60eufzr/8ymQspkrehFCy7i4vOTE42TPuniWH0I/5PVSAk1LcemLywc3TThVtFJGW7z1/5xF8o+tSUkFjzdhp2FLEYGTYdJJcXLgEQGax15VD0vi+ePpSw9tievBCwgWJi0Qb8dIK2wYeCd03IWWif5ECSIGNUiAUSqiAEqZ09gtemcS3tmMyFs/Nv2SIhHItRVP727SURNOe1fMgKIk4Pawu4OY7PQYj07Tl+VIaShLU5aasMAG572PXNkmbYfRJswUhwiYZDtQMpMCGKBAKJZQpIi6OGxsLg9UpKInSPrEhDQophIPT1mYqPcqWvH9Qsvnm1JCBQP8iBTadAkAk2tDXJm26DqLbAlLgu6dAKJQw/houl8/jCUIMJ2//R4ug5O1rjmpECiAFkAJIAaTAO1EgFEreSSMiVIqgJII46BBSACmAFEAKIAU+JAUQlKCYNaQAUgApgBRACiAFNoUCCEo2xTB8SJyL+oIUQAogBZACSIH1KYCgBEEJUgApgBRACiAFkAKbQgEEJZtiGNZHlOgspABSACmAFEAKfEgKIChBUIIUQAogBZACSAGkwKZQAEHJphiGD4lz335fuNiST8m8/Qa8YY1cHKxpe8Pq0OlIAaQAUmDTKrBZoIR6zbyiIjslX069Zp6SDC0J3rSXzuZpGBfjczkkl7PsdeMR3zsUg5FirU0vhd9se7fbmoiEi7/j1r5brVatXaQt06uCX8Z518O6alNRBqQAUmC5ApsCSnLsufCDfN2Fanuevruw+FClqjH4DVgMcDlLbsHf3Te64u+3MWD5lfeOUxKtnk/vPbh52qMOfu3vQ5/AcA6xtg0nmLc5R7PzjkeTNXzJxXvOPZw5P1Ij4a3hJ7M2cThrEyfKu9bm0XB5S6K5Bth5lpeAUpACUSqwOpTEceNlOpvJWkVtxjwNn8uNsvRosuV3G/O7jUlZqfFyEbUlZaXquwu1gQL4RUAEJdQNNwglPIzgYfRXiKPRVl/X8rxJsXpOIKporJ4dc31/v+d7wyYtd8mr/Vc/nTUlvJPMPMud0oP71/ANFJDp+OzJjb3N6Zv7y2r8ksPT57rCNhLELYH1VWXHOUQsL6Xh+OwnLYoIE3AsR+E6Nbu/SsieYHCciMUV7vMv5+fhNjczc+5gd0GKgJ1n1QZ8GxlW0ocnLu259OT8VlP0l8Qb6oPjBPzq8rPPme1Tp3K5PrqB+xND1m9DilhCra8ujL6/a20Duy/R7MPyCY2x0pCCvWc3k7Uqg/JvuAJRQYlEVyIXrWEujL6VMrPSuKNIkC6Ml4uqjjdQG4Umph3FqQYZghK2mFFCCQMuUUIJkJrv7K5xJkH3x7d3X2N3ZGP31wolHOPwnbv7ixM3u41kpUkXwwCIg1v0Mr7hpAuh5PTcXlsyjhP8VE3t+MTUwcYUljUl+pZsYM4I+vByus5Pn2iSRjvEb6gPPU8TidUff36mU0cQoVRH9fpNoCQxMaW62Vvd7E1MDOOcihXqa7xV4m/t8SAaEGHngf0VGup9tVIQ7RBs4IWBinqvFXjHUGLsL5KZlRSUUFzC2EtkZqXSmrX5oYSv1Bztc78Ydb0cbZ7yGk18+GQQA8S9ff5PcumnhNzq5nlnOnWhEAr1wYGWkPwYEHX1es7W6490NkzubJhy5ur5Cz9mUhKw1z4ZdbzcXX+2QpVGWUqAqLvPe67BcKqn8e6IfcqdbxDQERUCsXq0x/5q3DcXKOpzRGUpAVLzg72WUpaBJAaIA73u43m0ATy/tvl5iwq2H4gCve6z9Xqq3vtuHVPvSj+DmMSy9MEfFF/+c/n5Xxt7d4oWPjSf4PtJycinOYNfFn7y65KDE7KseKoEKr/l7G9KT/6D3uNiIAkk1mYOv7Zc/FPp2V8aOweodF7pdOXN/6q8+V+l1/5Kb3sGAYZhGPhIVCob/Npy7l8sx3+S73ZSiVQVWe237u+tZqdgGND237lzaNA/fub0zQf3Ln7sUCfQPUoxuMcv3JycvTVx63B3GXPf56RXbj89PTk9e+XIQPueexM74BNwHC+39fyz8WK6L5reGzeHi6lyOGK9a995qpyDXeVMObyclt1np6amn05NPry4v0MngmbIpOrP5p59yd5mT7mYUzjiypFbz++e8Gdyo+WS5ZNujNjoP3jp3vTzR5P3Pu23KXjQv0NZSg73+3efn5mZmbu0z60WQlcFBSX7qxPoice85+7t3QYeBh0Tb0WfyZknk1MPLh5oZ/SZnf9iycbSB8MAB2g7rj3aXUQPxMIQ0Lql80JtvWvVZ8+VBzOzT6+M+yl9KFlicWHF/qfn/Dns6VmQ3rD9Asx87ZNt7XvvrdtS0uztHBo/OjR+tNnbSV+ZLAShoCQjVZtnrcwz6MUkvDBiyPRsg5r6pcQAcYZBS/+aSIlSYzZbbQZNFpXCITKydJrUVJ3ObDMbDGnEws0HiGQaq9VatkWVlpxRnC0VJMgLt6jS6P4SKRmmghQhEStUZOuzhQTl1ZJm6LdAAwkLSnjJeTp9DgkADjI0+lyqUhxLy9Lnp2A8HGSo89SJyVp9YaUpT5sSv1A7q4PLu4xSPlQFooISmc5mKCzJN1l1eflpoo0MDCw/WhOvSQoLJfGaJADIqZk5tvRRemff2leCYzCyud19r0YBZzggqm+u2G+Ek9lKUALzt3lvV6RR+WsbbYcKUmEHgai9t3XOmQknHiCy+923ypNgORhps9tnmpQSnMsjpf19zoslweckIAr0tc25c9IwggNSuvu8V0sS4b0YE9Z4XHPunHQASHHm2GBbZPcNUJmn9rhf7nF/f7/nxW7Xi92uJ316LZcXGUqet6jEwT529HmulySzByh0H4iSun9VMrJbJBJjiVb58K8tgSoqD4SSI5/CuycQJbh+WLJnG8CwGCBO7vq1qdsBb1uJ1oz9/6KzaYL5JWldv7D0uAAgMaFNfeQ/TE1aui4goi0lpAgDIioxBoiTOn9V1A1ZhCOyKMd/q61U0/kxoOubujFoZP6ldrT9d6YvDeoSoObq7pvTx1uosSjdPX1jV7UYA1xBfuvp6WPN0B0WA8S28cdXdtjEJBBIKrdeno0MJTEYad758OowZBGuID9wdoYqB8MktYeenu3KC14PmZXbT2yvp91tAJD8ksOT5/oySRL2mnWDjhMYA0dvHN9ZL+bCyy6aLWTSjeUIy0cf3BizKxIIUlzUdW76tAu6dWI5ipZTzyYOQBbBUgyB83Pn27JDoCSWSDHvnJg64U6BsCIs3DV9bU/tW9NnZ42S6m8EfWAGntJx6smhWjFbHA5pChy9cXqkYXm4yTr04YlMrWeesBFkOZTEEikV+5/e2GlLERICSeX2K0/WDSXe3iEKSry9Q+xOUfuxQn1lW09DdXmGRptR5vM5iyEBJJoY80ksobZ0OqArEGQWuLtsZp0yS5df191kksMShIbaQH+jrSwrS5NbFWhvgp4vDp6WW9dvt1k1Gp22wtHs2VaencCTlzc7yhIJHMcJTlqx02NLwQlMaKhurZXiMBEjNCWtdgVYhBJeWmG1y62TBq9hFqlghKbCR+esae9rqCxVZWv1FR1U7cv7iFK+IwqsDiXQVgxIPj9eQCYmKYz5BTpR1M9nq4oYAUr4afAi/tHrn7IL2YRQUu1zP7ZrTNIU6umEam0EKKn2emecOSH5KUvJqQLaMpFdXvfSmxksSjI84NinJOLi4KFMS+1X/kwKaLr7vCeNNCDq61qeNUup/NsGveNb6HJMTa7IUIIBkVgEH4Ye7SptThJJRCT9jBXRUsJYUKB7qDl4U1thasR5JsWR32nMELDglmJL0lGQARJ8P7F0N1HpuP5y4aefkADE8izqI7/U6Oj8CQ2vSrf66HNZVSS3/8zS0cCkL3ffxHCLcg7/s1oLQQ3DQHz9lyX9Xia/YXBmot/A/EvtaPvv3N9VQu3j5j13rg3mYCBWoO+58mCrnn50S3WeeThmAxgGLSKXp0eKaJ+mbmAiMpTE8XK7r07159Pjkuo8M7m3ihpH2/jji7ua9GoVY0NiGhbBPbEm3w2GgZBJ9yNeXte16REjHf2a4bz8cMxGcHDKUvJxeSL1KJzRdXNqn42CEvvp+ZmZuampmamZ+buXd1cpYEwJB2gDl6c2oT5hoYQRdvnO+vTJ7LpxfxTqQ1sOlllKoMHmyqLB5k3cNzJlVufQaOfQqEyZtbz90FLS6ckMmiFjsHST15NDhoeSGIzERDS7Y7IKt70MPgAIDY0Be7YwaNklNDZ/cF9WYXdbk3GYiONSk3N7eXYCjkv1zo68NB6OE2mFPU0FcnhPXhlKsqRFi0QS4tNZAiUuVdDGjBGamvaFfdZPfnmXUcqHqkBUUMJ0HgdpmQVWKblh5rUI7pv3AkpgEIY4c8BVe3PA9eU+78veEqcMstRKUAIJT5S+1VkTkj8slMBJC5PsGvJ8tdM5N+KmticeFbyJBN03bCiZd0OI4YCUbYPeQ9m01Tr6mJI1uW/YUPK5PcwtcvGCCUKJzrzEik4dZUMJK3+N+uR/FJ/+heXkP8Ht7G8YKOGZjuV+/A2dfvFPkaEE41bnfPbvpad+Zjoe3E79mg0lK1lKGChhtce0deL51NTUtYm71ybu3pqYm9hNQ0nH9dnooeT/4eX335mfnJxkyrmzty44voCXXurb88nxK3fvTn8+eenjxkwaXDAMRIASpoVR7iyfdPuuTW43CqmgV7n3/OMDtQyUMIGuGe1Xp/bZCByn3DcfN8rFUmv/5bn9tbQB/yOg7749P3UXivNt63Nn5vka9AlnKYmg1br1uT8K9XkLUAIAKVNmyZRZIWYzqlOU+4aKiY7B0vPs7fkp/LCWkhiMFGUWmW3uWnvA7u/324PYITTUum1yAvIHh8iw+v3ZQh6pcfqqaPsijhOK6q1BKCGSCzochRmxuKLIEyhIhmy6EpRUt/c7AsMt5WrqUodNXcFS0uCrkQbdx7HcDIvPp0YenO8wkEUBJUAiycqkvIAcborSVCQnNyzoNUKgK/Xb2+SWEvZtLgYjS5rp2JEYIO7scp/Ip+nNWN+83KJAuWboWJNgTAljKdGU1bItJSNZtKVkMdA1IpSswVISvPSjiSmZb5LBzgZjStYKJataShgZY3mWLZ/8IksTCjEg0a8/+08aQ7ANGIjGUqI++guVOryrcaWYkuVQEmIpYdq5kqUEA5me07PjVXT7dQMTVExJiKWEKYe9EwPEppHbd4YLmcQ3hxJSHxjtrRBxoaUE50jh6pumFJxDfMTL67s2yVhK5N7zbEvJIpSwLCXu03NUTElyzcmp8/0qyoAPtN2X7zKWEqbl36I+u0uZWiLoEzamhDmR2Ukwdu3vqRRx+OvT5+1YSmTKLMZ3w3hwQuwlYaGESqRCkWIJdWlnE6QWSXWLt0mjlJEAxKSWuO1l0BYSDkowZb2vTk/xRCwuVNfTUPJRcmG9w5YmL29uMlNAxoaSGEJX3UE7Zarb3RpppsUJT6Q1Z0EJzNnuphw9CEqYaxLtRAElXHG6oSJHnsTl8sk0na4gPx6Ehom9iY5hlwTHy2kD42aHEiDq6vZcLpXCny4QVTubnzRnUGoUNTvn2/JzSCBMUR0c8p0OxppgQNTZ5b5cQseU2Oz2uYXJHsaUeHNzSICRkr5eBzumZKopK4vP55HSFkflsaKgm2YFKInByBqPa7pZRcWU7O7zruK+WQlKMLKosfl5u5Zu/zbfqYLgRLtGKMGWxZSYAnWUPmEtJRgmkffBmBIRSeIJJknX5xqbDuZPDGgv/kOWAcYTgBS76uASSwlHf9Fy8rpYtBhTgmESWe+vjN1eCNPxxtSueXXlQgwKBgSFe5avvmG7bxavZyCiYkokJIaJMmtGTo80w4DflWJKYjDSMHT//mF/JkkmpNdsuzp3sBrGAFExJReHq0LKwUCm++TMMSd8lIwBYsuee2wowUy7b97aWyaOD3k4jhMY/cevRBVTogqcn77ea1ISPKGksP/0w5utOTi0CgRjSibGGhUJBJAYqZgSylJCxZQoEgkeqQ8bU8IhTd3XZ6iVOFRMyaURW0i/vj19bu6wLI7OCvpgGAi7+oZDmvzHr7BjSoLZrncXrVOfkJgSfNnqmw2JKXG29VIswv7rbOtd1AEDYaEkBuQU+7uM0nhoHcl3tlBQktPsqaZRQ2xoi2ApwQhNmTtg1cgAIJOzq5o7hyhLSSwu1Nb3NDu6q7bA1VhwI1SlbT2FGQmxuDAtz+FdgBJq9Q0vrbDe589Lg2aYWJBN5cSAKC3P4eyi8QVBCXs0v+P7UUAJBjBRZqa+zGCpyNcbNjbQlVJ/+cvTACBvTz4wGMw/ev1Tg8F8e/IBlXOzxZTAeIUs3alB95f7vN/f75lpK6oILqyFrSUlbc76Z6O+r3c2n67OYJZOCFXak0Ffz5L8QUvJyWrtwYGWV3sdM9589uqbbnfj83HP17udV51aerXLClCCYWBDVt9Q7ffa65/t9n1vV8upKiXd/rVCCQbo1TQX/wOuvtm+m4mcWAFKmPzBVTYLq3ViMDLBclV/8nelF39n3PNp5uA3bPdNrEAv6/t/S678Z+m1vzJuGnr1zaU/l577dUHPCFMv7Br1npJd1exXgISHEhgHA1ff3Jl+Nj09/dkOO6TGIMnxJDXbT09Pzz5jr76BC3ASclv2XYb5J+8c6Spmxp1afUOVc3IXdPlT5STk+8YuzszMfj4z/fjm8WGrZNF9E8fLbdh3fWoWLsOZ3k+7e6CBPerVNzEYmV49dOTao0ezz+/dODtYoyY4EEpwDhF59c2By5FW38hbLs6c71YEV1u8HX2m555PzzwKq8/kHFyGM32ghvERcESWjnOPLm+3UPZdSme2bszqm3Xrs+/Co5DVNyu9p2SjVt8wvQi7Ex5KMJLMbW7p3Orq7KksKq9sg4Gu/xeQ5DX2ud3+Rru/1uaOZCnBAEg1GusCdnegulinreihoATHCcEWDyQPerkN5JLkLU3OzgFvZ299oY2xlDBLggXZTU5XLTSKYCB5S5MnMNga6Ku22JClJOxofscTo4OSb9+/xU8g4RpgW5bMrOQnwLAMs9k6//KrH73+6fzLr8xm+o1DmxBKNuYCWuq+2Zgyv/1Re4/bmWht/ezBRr3RlQl03bSCUCCyhr8LwZv0o/Bq/0bu+NvUJ6145NwEfKMrQx6R20YdXYMy1LtxVxMkRLdo2vAt5YGRrUtvBTEYyRMmhxBbSB7qX8ZEx3bfQCjJbnJVaUP6GIsvvp0lbGlMYgwWuqCMOYR2kAKbBUrCjoTBYJ6bf2kwmJmjCEoYKdDOGyoQg5ESbW2BYgOitt/mpEv1Gsd4K21hZXm3k+7b1Cc5p9K09m/fvFt9wg7ZO0/kEBn5ju5aqyErS6Mu8jhbG4OmEWmGqareEyiQL3mlbwigvPPGowa8vwpsaihBr5l/fy8s1PJNpQCadCMPB9InrD48Qq7UlZmttgL9lhTqNXpESoa2IEO68Bq9FSxGYUtDiUiBaBRAUEK79qMRC+VBCmwSBUIeTNn/hm0hmnTDysIkIn0YKcLusC+waPbDFoISkQLRKICgBEEJUuDDVwBNupHvhkifVfRZwSKyEqBELg0dRQpEUABByYc/IUUYfnToO6IAmnQjDzTSZxV9EJQsDRaOLBc6+iYKbHYoWV/f3tq3b9bXPHTWB6/ASk+QK6VvNkFWaudK6Zut/ag971aBla6TldLfbWtR7ZtKAQQlyFKCFNh4BVa6+a6UvqluCsFvndDfc1mpwSHpm639qD3vVoGQy2PVf99ta1Htm0oBBCUbPyFtqgFGjXknCqx6Fw7J8E4aGaHSkOat+m+EotCh76ACq14wIRm+gxKhLq+kAIISBCVIgY1XIOSeu+q/K/0+31X6qg0OyfCu2onq3ZwKhFweq/67OXuBWvVOFEBQsvET0jsZSFTpplJg1btwSIZN1Xjkvtlsw/HetSfk8l713/eug6jB354CmwVKBGKhVK9QVaqleoVAHP7jrtGrgAJdo9cK5XxDBWIwMlVjK0hf8unsVe/CIRnesA0bfnpI81b9N/oGJGgsxozU6POjnO+jAqteMCEZ3sc+ojZ/SwpsCihZ/kE+VeOWN+kwgpI3UQ+dG70C3CRr+/HJh7cuOHKWkHQsLswucdUZFSE335X+jb7Gt5NzpXaulB59q9JKdl2YenhuqELGQ0bKD1aBla6TldKjv35Qzg9egWihJA7jJ2tKNelJG65Ifrcxv9uYqE4RpAupLVGdou8u1AYK1l0XghJKuoJa1/MmxeoyAlF1c/3suO/1If/f7DDr8SUP/aufvtEr+LlF9yvGx0M+GIYnNqQP/qD0yp8tZ36c72hkPgkLv0VQNFG5f39I/gjN5hbeKj24hvwrFgUyXcdnb462sL82TGX+iK/vvvHl7ClXSsQXPMTiCvuZp/urE5ZXUTj6ZO7J58z2SUOYcdQN3J8YLlp+7hpTJHUnnh2zLyk/ZPKIxRXOk7CdIek4Tph3Pp59+vzJ0xfUFlIO1ZLcwfu3ttPf1MQwwEuy9F58fGnAGP2QRexRmPaH5I/B0j2nn+2rDKNzbLLJN3b19vTzR5O3D3eXMV91hu0sPTh1vnv54IYUzvzLKz14/9wa8jMnLtmxjE3NvXzy5Mntix+7Dd+uSUmQVlBQ6ahr8VRVlqtlYcRZ0rC1/MxxnEja0lyoghcMN62o3lnP/qTwkqtIoC2qKBLB3/MHi2ioa2tSIFoowUVbdPkaPpe7ptJXzSwzK407iigWKT9aQ23Uv6YdxVL9khvlqqUxGRCUUFJECSUciX5ytMYjJgAgN2ieeKP7SxgoiRGl9P3GurWTJEWE1Jf98R8KbGpmuN8VlPANu+/c3V8sCsNw8LZLJApZ33ZfciNeIJUIUAI/7gpEVYeen+7QMh9rZbpM7WwGKCEIIU4kVn/8+bkOHQDhv/4aAiWQI3P6L8ycqZMsMS+F9C7qf9cPJTEYWbjzwc2xlnRSJJLXbrs893GDlKn3nUBJDEaSpChRlKFtF4tB8AAAIABJREFU+uT65Ce1Mj7TnjXtkPHi6mZvdbOXjBeHPVGQUdXU3mrSZUtl8rTs8qr2nrKsDWMgHCfkFX1V2mTqhyCVyQkcD/sTwBNM1d7q6MkvbF9Q4oekQHRQAkQSXVF6UugnsN9cCGN/kcysZGwk5UdrmH2pRaEoVa2vircJJUKF9uig/eVe/1fjzimv0STEMQxw8OSerZ5PtfTcrK1pmXemU31JkOdR+V/utc/4DFR+DIhaezwXanXHuxqndtmnXDq9kJ7qOIS8w1H3ZNTxcnf92QpVGsGD5QTzX2k0nOhserDTMeXOZ/LzUjL29zpejfvmAkU97pZoLCW8dNPDMWsly0ASi6d09HlO5NNf0M2vbv7cnkXV29HnudJoONbZMLmzZcKTy9S70khxZQH12C/KLv3eMnZSte1nlrYqKic33qbY9kPrud+WnfpG72yiYIhb8rjs2l/Krv2l9Mb/UFvF6E6AYXFErmLvn/LMidS5hKIlOQtOHtySh1S28pv/Q22Ve3dRRhRuUqNqx48LL/65/OwvCjv76PLL55icdP59wwDDeFx95uF/zy+kDYEi7z+WdjfR7czaoT3w6+KLfyi/+C+mkf0icvFXoA7cmRytYdtsOHxt3y3aZvDk6YvpfVXMjZibZPUdvHz74YtH9+8c21pFPThSUHJka+vuy1Mzj55e3ufLIVk8F4SSc61B5ReeI3Fpw7bzU48eP7t2oj+wb4ptKeGlVo7ceH73RCADwIsw6m3JpM5Lsvj3Xbvz+IvZh/eOD1Qz7XSefHqo1zt69eH04yeXxtvUwc+z0b0LQsn5tmx2jTxZw8DZ+1Q7/Xvusi0l8AfC17ZdfbynbAmUcMW2nTef3j0RUPLW9Nwcpv23Hnw+c2/iWH8lNdtRlpIj/b49lydnHj29OEbrHIOlO07MMhYUUUaZQQMn5oSaY4+efcHeZk67aSNKmrXtwK3b088fTN47tdOZGbwelud/eArm/79xtfv0/FiliFJG033j1jBtMSKyW/acnpyamZuamrq0P2BIDh0vDl/be2Num3mdUNLs7RwaPzo0frTZ28keF3qfUBrdvWZZPHOIJy/3+OokBB8jlGrDFvrhBE9VGfJEeLANQCTVFJqs5VpN9qqPLmwoiRUq1IYtNKALpQpdcVFJhV6TQWMKBSWS3Pyi6iKjURy8/mPI9Jz83AXziSTduLBPSjJzi4xF8PRV28B0De28XwpEBSVAnJ9vLtEYrLp8gyxp8Tp+866WH62J1yQxIMKGkkR1CgDko8fP1lHLW4OSGIxsaffdtaXDXwgQNbRUHjDBG9BKUELln6iUUPnrmqoOFQSfToKQMefKgswBRI5Wz90qmB6DkVUOx5wDpnMS5Vu3Oq6WBCfmYP55d2YaweMRaT1bPVR6DEbWeFwz9kw5TyBIzt6z1RMZSgSZlgc7Hc/HPa8P+V+Nul6M+p72G/Q4ERlKnto1KQSBE9KOPs/1kuQIA4QTUtm231s6WwEguUmNOYf/SEFJDBCn9v/W0ushAeDG25QHfmus0tDlABG36H7J+CGSFGGAvptjGIiv/7Lk6N0McyVMZ8+4MP9E6f6Pl+aXpPb/1tTtgfXG23IO/1HfmLdYfuGtyiNL8q8MJZL0nf9uchdT82hK4Flu+UI7MaDdNnlzwLSkMRigrAUEIczpusFASSwuLNp7/+Y+hyKR4KeWBS48/syehUOdofvmzkFPDgmIRJP/9NwSBFkGJTFAXDX+6PpIpRwQAlnN9itP2FDCiTcFjlz6bFe1HIQx3oS0k/Uva1IHorLRxzf2NisSCUFqaefZxyfdKqqdzpNP7x7yqoWEIMnUdvbp+bZshrcoSwkbSmKAuGL/02sjtWISCGQ1Q1efhkAJl5fuPPv5odolD/FU+48P1a8x3CRM+9NFgEgu7Tk/+5krM/g7SnecfnHngCuHBHiyvvX07FkfRKgYjFS5r05e2++qNElEi7gZg0GTD2UpyYTWQ/pQDEaadz68ssMG584Ea+D8/AkXfHCi8gsqj9w/183OvzKUSGyHH5/r0gW9FpmVO07uqIHtZLYYjJQW77o8fb5Rtk7jtLd3iIISb+8QUyyzw0krdriqIIKwKqX2eQkFdT76EIeXXexzpBNcDIgybb1NtRaVJi+/rNPTaAl7LlMaG0ooW4gUGkpUhd6+SmuBSpmXV93eZJLDSyjBVN/Z21hTkaXOzS1p87tKEjEBnmCq9VVLgYCDEbE8dZmvWQF4OMgwenttlnyZKndLdVeTSc5Uh3Y+JAVWh5I4kCTRlWTJ4EMkEOXkLsDshqgQAUoE6fAp6kevf7qOit4mlNT4fLNudaE8LZmg7QqRoaTG55tx5oTkpywfpwroe0R2RcNXPiUsh5CPbHfsU9HuXkVpzVf+zOCNDFpWThrpB019XcuzZmg54BFp27d7DmrplhTWrmYpAaLkhOS07MLHu8uaxInSxBSpEJYZGUoYC4q2vul5c6RbA4dryjn8x9wCGmSTAt9QUPIR15Lz6f/OyaP7G1//N6UDrcxAh3HfwFunJL7o09xdry0X/lA0NE7Cxyh6W9V9A+sN1C3mXxZTEgFKJEN/LOzsE2frQmEIA/od0ze25jPFsndwnGBDSTDE5OF2o5CayLM816b3VRE4TkHJxxU02GV0Xr+3p3KxnGVQEkfkBi7P7LLQ477h7puP+Pqe69Psds6MV1PtdJ58+nFF0BqPE1mdN6ZGKyJACYev7bz6eMRKs1EY9w0vvfnk0xAoWez4wshGl7IIJUz7qRMhcIxBUxZlKTlYs6jz9NiCzkCUVdW745Nr96af3DjcrU9e5LnI7psYjNQNTNwaWozpWR5TsiKUAJFt7PGlXY15WSq27Y3ur2Xs3qPnt6+e6Clbp/8aw4A0M7tzaLRzaFSaucSCRVXBy6hzNBRQxgZAyBRZW1SaPFVWtpiIDwslnLTiJnclDSJAlFvbW5pNmy3DjlF4KMEJIpH+CXDlFc7mImg+gVDiVJGQP3CQYfZ51SQvLJRwMIIgk3kYzsEIrrzC4SpGxpKw4r/viatDCRafozHoyOBtAoa75lRmSTbMWBLBfUMtDN7kUAI5QKzaZrfdGra/Gvd9NVDRJIE3tZUsJTB/SgaT/2VfGZV/OZS89GUBDINQMtL69S77o51Nj3Y2PRl1zLszKStLCJS8dEP3EIeQs6EkypiStbpv2FDyuYN2S4X9JawEJTxuZc6n/2k99XN6O/fbKKCERpA4Ilfa98uSHjtTY1go4Rce1x/4ReHJ4Hbxz+uFEsBNdav6XxQc+XXhxT9bjlyXZCxe/GEtJVSrQqCEwzX137jPTPYyz7npg00MlDCBrgr/xXt7Khf9QW8dSjhc09brk+x2To3XM1DCBLoqWy9NjVYsRgksc99EAyXLLSXMgK5xZxFKmPZTJUjdZ6cPNDBQwrhpFP6L02MsnYM3txgyvX5samK3jdF/OZTEYGRK+eCB81PXbk5cunn/9vTzdUIJBnB5Zfvuk6ev3rs7Mz95aX9txqKdBpQemDrfrSKDjtq18dkiqf8fM7MiM0ORmcGYediq8uTljpZi2i8j1OitVcWljqb2VkMqPyyU8LIdzspFG2FyQUdLwWLwDbtkan8lKEnKKCmqdlY7O53OXq+zBIaBB903CsDj4EFbiLNNn8SylOA8xlLCwXnxqiJzZXOtq9Ph29raUpyEL/Z3eRtQynuqwOpQEhev0RlZUJJbmSNZ/P28YbcjBLpSv6XNDyWLCgBRaQsdO0JByWd6WihTQ8vnLcsmbyCqcjjmXdAiEgIlW8rr2JaSEdWy21PQfcO2lISFktUtJcFb3qpQYqx30hYRIGLHmmjrmyJDyUrum4+4Fs3Rn+duWZzgF2WEq2lCV9/E4cZUxwDzTBlnvFF8+GPmOWk5lMTF+wvO/iwnT0YVG5WlZPyP7JgSNsQstE0i7v1nJtYEw8DymJKFnGA5lHTfWLSUKFsvsS0lDJRQlhJmUqQCXdkOnY2ylAgMXWN9JQsrTeCk/klzGoRaroltKVG2XmJbShgooSwlbwIlYWNKGPVW3Vm1/VQJCv9FtqWEgZKMzusUlMQRuRXtdiaeI4RCQv6Fbprk2rEHdwdNKZTLRjNwPzKUxIAcdkyJrn+CiSlh+hgDxJYdk0vSSUm6fP3rHKWZ2YzvhvHgpKRnMDXCgRbklbd7dEmLviGOIK+q3ZEphFBSRQWXBLNVtUP3DS+jzlsTdDYF7xiSst6GPCjCSltYKIHWEW+9ViYXEgQ3uaK5OVoosbU7FYDHlVbYfc06qURA8OLSShwuBCUr6r/SuLwX6VFACTc13ViSlZ7K5fLJ1NyNdd9gGFi+JFioSkyQ0LbBzQ4lQTi4ZKVjRGpcLU9baN+wpcU135afJxQkpGUfGnSfCcaaYEDU0eO4Ukrnh/EiTcGJk4op8em2EDyBUN6z1XOrHN6VqJiSqaasDCGMHWlxVB4rCj6grAAlVEzJdLMqTcCLJqaEukaXQ0kMRhbVN38e0GmFwoS07CNDvtPGoAtpjVACY1GDga7Wc79dGugKYz4svR4RSfLi9dLuF+xYjbj8KyXHr4lFizElcbgx++M/GDvsJCnCEy3S4SWWkrj8C6UnrrPzc5MCWy7+LLcAAh83qTH3wL+zIYNbcMlyckl+LEYk6vzH0pFdIpLky/y5h//VWB50n/G16aP/qm0Mrk4HmeLef2aXIyjaG2H1Ddt9g8cmFu29f2dfkyKRiE+1Lo8pSRcBrjA/bEwJe/VNDBCXjz+hYkp4qZXrjinhZbVfmLrSY1YAQKYVDZ6ZutGaC11CABNbxx+uFFNya9ypSCR48fqwMSXU6hvqiooB4ur9j2+NwNgLXmpl78XQmBJ+Tvfy1TfRx5Ss2n4YU5JmWh5TQunMxJTEEbkd55+d3VYpEZG4UN98YIZtKcHMo3evj1mSExljAwUlwxb4GwTJZf7Tc2wowcyjE9eW5sdIw9D9u4e8mSQplDdsvzx7uEECJQKZjhOzn7pyoBUHiCt3L4GSxC0tLne5glx0B69pLnG29VIswv7rbOsNKSStoLW1pSpdGHwwIJS5tb3OSg1sD5FV4g/GwAJRWp7DE4QSCDF+n14OLxJeQkG536dNC/q5hKnMswGGAcEWj7dGRwKAE6oCZ1exSkBFjVR7q6U4zs9ubmswUCybWtAWYimB7xEGGcagpSQWZJe09VpkyRgQpZqc9i4YU8JXNbfXFlDInlrQhiwlIQP6wfy7OpTA27pIqdRZDUVlGx7oSunIfnmaNlBQfKgSAHLi7n29yfSj1z/Vm0wTd++vSfG3FlOCYSBRpT836H417vvBuHumrahKTPukOYS83dUwt9//9c7mMzUwIpXqQnJGAZN/rt1M5w9Cxmc23dFBOyzHZ2BWtXAIeY+n6fm45+vdzqtOrZYILqxYAUoo99Cbr76BNwhC2uZsfjHq+8HuxtPVGSlEsF9rhxJm4GIwMj7w89DVN5f+rezcrwp7hxkrCHyM42slg68LL/+19Mb/lGz1UyXg0vacXX9fePmvlRd+bRwYZeeHDp1tPy668p/lN/+nchuMTYF1Fd8yfvbvcMnMrhOK/p+wYYLD14bkhxd5cDVQ8dW/ll/8id7tYG61/C3jeUf+pfzqn4sv/sGy74RYzHo6Cb6n5M5ow/IFjZSlZHJPORN4Qa2+uff41ZOHk8tX34ydnwlZfVM4+mTmyZfzz7+kXlXCvKdkY1bfAJG8evjI9dknT1/cv3Zme62a6S8n1RQ4eCvs6pujA23jFx+HrL4x73w8/fSL55+/CnlPCXv1TWDfFDvQlZdk6bz4dPl7Staw+ma19t999OXcg/shq28O9rfvOz/NXn2DYYDIqOn5+Oa92S8eTT/4bLefHVMSS2jrd9+Ch5598XAMunViMFJRt+uz2/MPph9dOdrv3X2XDSXs/DPj1dT0iQv1zrFbd2fmZ6buHupafA+KMC/YmLn5mZmZq8eHrWn0dRWDkYZt9x9Nn153iCvzi1tlB4jkBZ6m9u3+zn5/Z39daYGYoC2XyVua3J3b/J39VZZyylICgUNeXOXvc7i7HH6fJTtoJgGi/MYBSwYd4QSrC8JNq7/L2dZbX6qhbWlBBw0MdMWlefV9zU5vvbOtvtoZAUowDKRqnc6eHd6ObpulgrKU4CAjt77X7vI2utqqahzIUrLK+K5sx9rkJ0YFJW+hD4IkYZpJnlGTnWaSC5LgVV5gKnz+xfd+9Pqnz7/4XoGpcE1teJtQsqaGrZg5ONmfMixdV/LeXlWh3QTQ5sGVwNU3hkZd6NH3uZv/f3tv/tbGkt/737/iJgejVqu0IsQmhBD7JkBCYt9Xs0hCEvu+eQFssA14ObaPN2zABgMGzL4b4+3M3Mw3M5Nz89zMncwkJ8skk8wkk28m853vz/eWqmk1khACg43tep5+eJpSddWn311d9epPfarbXaKtvrc492xQF0kF7aLVNyJFzrmxza+Lnc27f046uH4u0qzu4YUXI50F9iTneiE45xEqQPuBmGWi9UTMFLTP51rfscZiB2WYjVFCO48OEDssE5VACsU0AduXz0xxJ0U25bgTPCDw5gEHi4aYB+L9T1qBkwIlDkVUaxLXXrw6KJHAyHN/GLXOtrx4g8WyC8g4gaPg5wslKKYVvhTk8T8nNLd78ChPksMr/ikmwm/fKHNUllc+fEVGVI+8ffHq3dLc9I3GHOhVOYGN7aOaJI7OUoc4W0aOFftUFGB7aHKKtC4SxqdyUtjOj67AiYaSQ6vz6UHJRx0nDq0zPhArgBX4chUAYqbj5MvVAffeR6oAhhJGiMCRKotvUawAVgArgBXACmAFDqQAhhIMJVgBrABWACuAFcAKnAgFMJSciMtwIJDEmbECWAGsAFYAK/BZKoChBEMJVgArgBXACmAFsAInQgEMJSfiMnyWwItPCiuAFcAKYAWwAgdSAEPJwaDk1Cn4sUsWi8Nmc93dSXd3kiTxovmDaXigBoozYwWwAliBD6wA6uHReyVIkufuDt/H/2m8XeLTX66BoeRgAypCENRk6Yb7gW8YXB1WACuAFcAKHJ8CLBYHbSTJY7E4CEqOrzpcMlMBDCUHgxKkHXKW2O8zlcX7WAGsAFYAK/ApKoC+DkF7R+iPRXyK5/LJ2XxSoIR+zXxAfBB6zfz7SHl8L0+jJ2s4HD5CaQ6Hjzn6fS4WPta5Am6EQBqXpZThWUKXnh/wG2OdNyf8qysKoHl5kuShDt/dnUS9vSvH4jzvqcCJgJIIXWzqtez4xsQIXWx8Y2LqteyQ4qj3ObHjgxL06np6ihH9+z6m4mMdKiCKbg1Itnyb99OfInV4gq4meieYb8/Cb+uE7oYSIA7OMhdr4aeM8cZUwDurd3Rh7fH5QvxtHaYseP9wCnA4fDSDQ5I83NsfTsODHuUClJDy8KS8hBRqUyXlKBW+B63GSf6YWnV8Y6JHiBdfJkSbR4hXfGNiTO3hx6TjgxL6kzpoBxH0iW2sqmLdqxL4GaB9NiAuKC7eGqj87lrlj86r4y3fDNrnkH3LfI8MLDJQeu63Wfcf2nwox10zm3O1z+ZbG+7ijKC2HyWN/DZr5B+P9ts6boTAu/7XWZP/BbexRalgPxl3Ttmhna7oKTb/IrWu0JoThBvubU5eLLavmsWLqZ/cXh00+pN2n0PbMQM2UTLI/HC7L8fBhx6TLm1tvnxNb9/oHLST6I75mXMpVnsYJbueyHb3K7z10mH51kJAcPn9F4e2M+7M7PPzqdbSpGkNj9aetqhtmoo1w8FOROqK/aaHrxzaT3gnVF4dn1p5vbow01+fGYi+tm0xgEwbWBxuZKY4t/Cg+R2WRqYNrL78dvvl1vTj69VxUod5jiqR55egzTIWl1bm5GVEyKxf8juS8iVRpYkhsEzSL6nIVKwQOr492fyYhEytN3D8qxNLaKc4whHmlL2To/BP76+AS1ASmqT15cEHNZKU+CozQn2pL1y/f/VStULTmcqVe/Blwsyb+WhDaKLpTPWLCThcFccHJWjFDfpLB2N/6lDCk2rnL+YYJfCbnDaf5Tyc/kdwlKMPjdoP9pAbqr9P6en28PUkvXPkvb/WVuYcQe30oIW+bxzQm/B42Z4M9qrI3s69ctqk20AJSDg3NTeQIdntI2HYtu+g6wRKABCweX55118/rFXuddFPApQQQCwA0qIb248bYvey0xZKCADCm4dXbhX47iEdraFLO+8BJUCcdHF1orckRCgUyNPOjr1gfjj6oJBx0Pw2rYv6F4iFQk+hp3+c4drEwq1SqcBxtv2U8RB6FRiMBQajh9Dx5xV5QXm66lqNMsxfFuAbllVQ3ZoZcZRcEpDVkhtjqRqI/WUB8NuXjmxme2jyqgpkB/+wsLs7SYMI6uFpTHFYEU48KgX2hxJ3IJHIZVT3JwqPTogTkwemzr3M1bSmSlMVQjkfgUjmzXzaXxKQHBSQHLTXgc7Tjw9KmJ4S1GplMkVb29l3l00/umRaqFBrhGwYHsXzqWsx3VFSN3xMQcmbMupcPAJjr5/R2+QnLF8JflQcf6uxZOliyUpFbLyQ+pouR+RfYyxcv2x8c77kQU6wH2lJ38l/r7F4+aJuoTzKml8SMtCq+2G/caNG3Wp0yVNCylULl1LTudBytCH778YK0b/KgmLK/r3rpY9l7niW/YVWp2LxIuTd/6GtzIHhEc2/iIqHXYm7d0HQ2f+Z+Ph3mY/+NqG5HTUwS4bfwk8KT/wx40ovPeiS6ZuZEzCR3jJ6zgGC+IqMCO77bWy6H6qUDG8Ny6aemEnvnOCOH6eN/UfWw1/EVVejosiwOwm3tqI7vk26Ph9aPh7d/7+0OggxLF5McN9vE6r7oi/9OOHe9ylnu5lOGtIRlJASWH7Sw39Mu/czlVFHlZ++SXlWkH9l8r+QnRDoHeWHOsgqg/v/Jm3k19qeO+EdP2d6SsIbJpcvFzB7WxYvpnkMfoUYbcsXM6xqW57I59ZerS3N3W4tCCThx7ERlNxore0dW1zd2BoZMEbwGB/NBuKs/q2hynBrIQQg5HntD2dXN7bGb7VWXpnd5Snxzuue3J4drEWF7zpqp+XYJ9p6Shieg3tnCqhJFoun5EZr5aWnS9DOy5XhTL8UEGcNbNvb2fFojrZzl6fEckEbnq71ZFANmLLKO+/Cs1ezg7UHnNnZDSUM+2+170wSgWDTw1fXm009Y9D+0b4qyn5LOu1B8Q5OS4yAbVVSdG/15be0m2rz5evVQaOPxUMJpEmVV8cXN16vriwPdusjLP3AXvm/IiOqHlo9TNGtU3PdVPsH4Yaeh0uLK+uLK+uj15pUEriolbmxeDFNky/OJTjwojGz7bWvq67tHLjdOXBbV11rn8edK080t2QGWimEDMjSmXN8ucCdK49QRVH3C1caooqVcC39JBD7hqeoknLilOH0jW9fMp1CQ4lNgYHK1ITUjPjIIFQIghKFrzIuKU+rUvmKIKe68xThqnBqIAPS4IQ4ypUikCqiUxKSsiIiYtCsDZvNRa+BgEdZFgbTBuCdY1JgfyihK3YneKLglLjgo/T4Zd7MF0dJ+HJq4oYJJaJQCQCC1Y0t2gDXd44VSphmuBECfZ1pqkAKbwAgLijLu6aFNzmb9LJACdULKPNLt/UyggBuhEBXY57NofKfLsm+nmAZUOFgX7WpV/jzOAQQl1eVT2fBkduNEGTry9dKg/x5HDYvoK1F/yTNGxpgyb+lD/bncbg8v6YW03garNeNEOSbytf14f48jlASdqWjyvn0DQhOWu4xv75i+HGf8dse87c95hetcPrGDXjXtZjuxlFTA/GFZe90FqiyQMkLY5A3AVCeiTTHz0lIJTJhJqmxlANOh/X/z6SeM4AID7j0Ri4TEITUu/n7hHoDfPb1yIm4+bu4omhKWItzgpe2nH61f1ffBMRk0jxMFIgJQPWkECau/Ht0ooR5USz7UmnbPyW3twkEYtK3OPzKv1Llh99JvDfsDcTerd8rsxRsWY/q4aQXj0uQ0fKB/0hqNsMayWh556+TDAl0mWxZT8LjZW+etU93I729W7/XNJXD/B4ZwZf/UZVvtR/ZKeKJaDvdSYlN/oTsSEvnKPM+8+vktgoABKSfOer6b5hQEte2PH1WQ5uBdpA3CwBBWP3EYg8FJW6EILV7abynWC4GQt/UuuGVe+XBlvYgLxl8OXvVGOHBJT0Sqh+tD9dEWAsE4txrr5gpbI5/Zt+L8QsFMi4QBeS1P92aPp9M5/9KoKm5PnH3Qr6Ma5WC/nWvHXe2tOjO5jclFq8nEGf0rk9cKgsViUR+afWP1u/rYbtyJxXmR6+n+o2RIp7Fzq3hql12Zg+8ZNpJkrLsgZcT3YUynkgUkNc6ujl9jjF9QwA2J9AwuHWtwHKz7AzGyP57nQX+HIr497KZme7Q/iCRJ9cvuXlk844O6swiAw0P3z6/VhEmErK9NNUPN2n7QytHFicGKjISA712ERIAAkH2jcUnzSF8rtVDCcRpF9afducH8mE5TaMv7xqphxmH+VncqKrhl31Z1O0Q3UxBCYv0ybu5OVgfKwCAxQvMO//wQgFVDjo1N0Lgk9Y1ujJcJD/ApWTKYm460331dvfV2+amM8x0tM/yz9Qbs73ZDjxVHA91bmW+nAt/YnHCUivLgrkkAcRheS3lBZmKcGVsWk2FLtWPt881CshqyVfCzoftoSmoLJAB0h0oEs0tOUlKRbgyKq+hTAubHPy1trE4Pys0ODI0o7KyPE3CAUCUUFCR58uxOFfI8IyK0lAOIDnhWmNjQZJKEWw93P7UcMpxK3AAKCEIqSIhRSZ20M4ObaUTKOHL4D380+9+dojCPySUFFaZVsrDtAFSH551dt8JlBRUmFf1oTb5EWQMJlAlhGWdfmuCMYynSL+uDv0Vy9QpQQB5Wt63pmD46GyBkgcJlCcmvrBss1SO8p/tMF1vsvqgAAAgAElEQVSNocrRlJQ7hxICiH1EXrKwhLWLmQZvsbdYLBXDMp1DyWAC9QAUV1z6qtTZFBsZdC2hp5MvvxDffj+k95E3vzj09pjYcgLMy+pd/X1SdR4zheKP3TPB9ol7QclXZHLIzX8IV1PzjMLTf57Vboblh99JvH1XTAjElb9Qpvm6SZpVI/N+PDZBRgcP/FaZRgVLCXQ/TWs20PbYQwkLwPIjY6jBQFT0Z+lna+j8DuwEyVG3/iE8hrp36PwskBx265+j4yk7Pat+aQMlk60qulibHSaUkJyEuomV8xpq2PM3jS5egS4WN0KuH9y4lklBW1D9xOIlxvSWHZSwiPj6p8vdKVS7UrbPM6HExgAX/2UO6hygqR9fPa+l2o+icmy1H9qJoKQ/1xOVGVo/aWOnDZSwiPjGiVXazpgzC65AiYsG22Rzbv9KXz4gCBYZaH64TdsfXDO50JtNlQPEIXlNnbfHZle2nl5rSPCmtCUIANIHVp/UB3KsHkqbqqNb5pnnZZ9/LyghgDivb3OityQuJtSLtwuGYBXJl+fWXk0/vduS4ezmtTHG5l+ZIrS563Jz12WZItTmJ0gbgYX64njqoUIoU4RDUAgNj/QW8hxCCcs/87QxkwIRII4q6kgPoxqDfeEoxR5KCALwBNStRAZkGXUpAoCgRBfJh7K7s4K1FeZQD8dQAg/3oO5oMiBLX56666FoB233sgenH5UCB4ASUqpSxoWCo5u7IQigaU2VJyoceko4vpCUTziUEATgSELajPnT7fof9FX8sC3DIIVPHntBCUEArm+QfX57KPlhVSggCDYvoOt81Q+7dMtdpctdpes9htcmi2/TDkpe661Q8vXO3G18Ydk+UILuNHnC0uVd0zfOoYT2oEQXFL3WOVsAwhJURH894ps0llCaFXD+jTyqM67nIpqP8NDcj+3/66T7P4fbo/9Mqy9itmn7cR3OgCBPCYNU9oISDpkd8uAfwqOsUJLWXg3Ldw1KPMv+goIYiz4OoITIjrnz+7ShXyTd+R5uD6C3g7bfgZ1Edtjd36U9/D7p3i/g9vAfUf59ocTeU0LXYgMlTRMLHfHUw6UNlPTlUjooquFgb50PsoMSCA3HDCXtU6sdKgqaZcaRxf5iAYCeEsP9LXpQV1SO2dhpAyUcoPlYUGJj/0LfaeiN2A0lisqxhd5sq86oFfEjCvqWn3en0+n2kEEQwD/t7MDI/PSzuelnc1Mrrw8JJQTgyjOrL90bfro0t/Zq9klfUTA13CIYWnzSHIQmgg871gIgkClCZYpQh4E+0FOiS0aeEiCMVCblpGaUldRWqHwEDqGEH6E3WHyHqHn7aerK1P50U3e44xBKJEFp2hxdjq7WaGytNGZICBL5URQcC5RwpCpdbbw336GnBE6rBaVps0sLyuv1FW1VZakSwnbOy6ElOPFoFXAVStxJkTQ6K1xqbdlHYodULdN0piIosQl0RW395EOJVQcgziijpmkQlDxQUU9F2tOlm8UQGnZtQJytL0fTOjZQEpG5y1PSFcKIA0CFOIWSA3hKUGkuQAnlEbFM3xwASkhN8MBmeO12uNLbo+IHUebRhGoLfHgY4x79PFhJTQWKzb84HJTAmJIr/x6XSnk4yNDW4Ew4o/GenhKx8S/39ZSE3/k+NML61Mu8sg6gBCRH3/6e9pTQmZ1DSXjdzNIV+CBO52fu2EPJXp4SGko+mKdEpK6/1JIuYcMG786Wlj7YvlUGx5gP5imBFU2s064Upm6u7Ltuv3NPCUcQk1unj5dQ9y9IH0DzNcgGeyhhe+VfXp7p0FJTovt6Sk5xQpjTN3Hts9PnEm1OkEX6JF2Yp2NN4FXg+cv97Wc8d/dONp0V41+ZIpSeu6FncGz8JSx+bG5lhdLTWiZMqS0Lt/GUWBKDuSQnpMScr6Sbul9aw+lYH5sTsfnXHkrIgKxiY3Go3Bdirl+aTucSlLiR0Tk1Bjh9E5ClqyiNtARQuvul6csxlFgvn434x/qvq1BC8kIjE1SHWFi1r/VoSbAoVEKHuKJ9dOBJhxLLID2U4Q0dfUCcU26g4SOlzLBdpYzg8UV+4dfPmYYssSYW+DA9SaHy5+vLXqDpDwtkoPxsXkBTi4kZU7JUGoZiR8r02XeSLAP5HlCCYkpWS2GsiVAS1tNiOpynhCBAcknZq9rYcAEQ+YUPdJmpKZsDQgkBxN7tP0u6sS2XCTjpCwnf/K+EHDgHT3jVxj36ebjKAmpexSHXfmOFEmZMiUDMfA5zjxtLvj/hLbbGlLgRAnHd3yR3XRKLvXmSDHnPv+5MA1liSprrYEyJJGdXTMke0zfygf9IPnueL+ICUVbwwG8TSuPopusmaY578tPICCmxsyaIjikR8wQsQXxAy5vI7J2YEgIgOyUiiX1MiYgnQvnjspV0TImmqRwAAc/PYBNTwk3oeT7bv9fqGyaUuBGCxN45FFPClSTaxJRMXdGFeAg5Yg0zpgQAAZfjk3vt1VCDdfUNiimZupAj4wKeX5Z9TEnFrVFXYkrIsPrhldEmdQAAAp+ktsGViZpIy8BsiSmZvnQ6VCTieSXZx5SEikQWO60xJVAZ0jf/xpvheuvqGxRTMt2dK+OJeH5Z9jElZFj96MLd0zBqwNqxfiXQVNwadSWmZF/7UUxJ/cNVZkzJs77yMJFF552YEhaIqH64+fhcdiBfyBfH667t8pSwtT2zU31JUtjIUTtHUHI+BcaZcf2SmwZfMj0l9vndCEFCx/zctaowiVAYnNs1sXG9GM7IcMgQ0+DGLSOMJ+Xw/LMuzTNhxTNarzflBvD2nDZiima/X17TgliE+be8psUmp5+mzqTLl3vCKUvAVYTltRiyIyF2cENTzQ1af3gX+8WbTLUwpoTFj02vNMUHwJkmjoc621gV4wfdfhyeP3MOxSPGZM5XQuYACrWhIVkBry8dU8ILK6XJxldd7cRTQnLCMyobk+VeBBD7xhp0DTCmhBdWWn1ahcDIV12NPSU2F/SD/esqlAiC01ShMFTzODbmy9NiatWp17L/b18293xJpdX+9LufqbTauedLB6r3g8WUQI9fqGrQMnfz4z7jZl1K3s6cMZsXUFte9KK36qc9uqECSAnoFHyD4hzkt0DG/YKYW+f0P+4zrpqU9GoaNi+gwVS2dcX8Z1cM44ZoKn0PKIG3qG/Y5SbDD/oqlusSWvSHnL6BpgqkFfrTW1fMf36xZDAPRrbCxINCCQHEhr/MegTjSNyDbiY9/ftoJXS2uRECj/Rn8Xd+l/b4nzTd34S1/DWCEouH4/dpz/6/1PE/oC13/JfBYVQoBosXE9TxV8njf0wd/4N1esUjJ6DjR8lDf8wc+jtN+1mxgPJeuEsKgs7/JHX8D7lDv4yvNlFdm9Ppm3hzV9S1X2U++RfN2Qsw+nWntbNIT0npVvLQH7PG//+sJz8NDbRU4ZERdP4naU/+K23oF/HNbQKR9dbgAE1Qx1+ljv4+a/K/rLEmKP/Yf6Q9/D6+uU0k2vEMB1RG9f9t1thvk6/cDW7atfrGnQzV33sx0XPal7eTecckggBMKIHhRL6J5oEnz9ffbSzP3WnLQQtMqJiSttq+x8twoUp/ZYQHdV6JvS+Yqz/Q4Aqn1QOKzj1ah5nvttb0zzFjSty9srqfbc3erVVwHTtvaMXcCEFgVtfN8dXNl6/nng2ezQ2jH4JJr7Sa6xOzG99urszf6ShQWN41gGJKbnbU9j22VN1fGWlZJUEQQNu9vpedZwZXrXYyAl1Jr7T64fWRM1rmeAYR0Cure/r17N1aJ2Ec6BRctP+b9vwgSztB0zdft9f0jUCTnvZVRIkonbkB2c03pmY3vl1dWX7UWxEHI6qojQUiinsnFzfg22KQx8WNEITk9dyb2VpcWR+/017ZO8OEEhY3is6/1leIJGUJ1ca+SbTq6lbzTlgGATzjqq6Mbqy9eLW2tjZ+pz1tZ+kv5Jhzi2srg4cOcaXt32cHiAPi9SW1HRW1bRW1bYUZ8XTcq1eMvrz2LEzUZudaoIQgAD8wM7uyqcxYV15blRxmcZNYgkuSg6wxMSxeYFReQ0VlnbG2tSg9El1fGkpIIIstatEZK4uNtQU5OieeEthvR5Wam86Y6xpzkrOQp8SdI1UVt+rKzcXl1bn5euwp2ef67jTjI8/mKpQcecU2BfIlQplKEZoTKVMp0GvmVVrt9ptvf/rdz7bffKvSam3yO//3Q0KJc0tc/dUCGXSgq6tHHVuz+OIM2B3oenJOn/RKq7q3xHyjK3qq9lQUnp3YuHH6KJfCnZyzfh9LfNK6hhdejFw82BKb96kRH+tcAaazk87pRjh+JRJfZEUQDhmSbNSHiew8OjsOS7o05g4pkNjAKPNX5r5DG0gPixsbd60fT4GTAiXMtkLvq7TazZevD0okMFjMH76eEr3xhn7FGV3sSdzBUPLx7gHYHk4qlCCvkm9UHvr2DQtEVI28gw/W89PX6lIo99XHle6E1S4Jy0qIOMpXTp/E7uKEaX5MEsF5nOJEFwnjmGzAxX54BU40lBxajk8PSr6MXubQFxQfiBXACnxxCgAx03HyxZ3+lzooYCixTvHiRo8VwApgBbACn58CJEtwoO3zU+ATOiMMJRhKsAJYAawAVuBzVoDN5h5o+4SG8M/PVAwln/Ot+Pm1V3xGWAGsAFbgoAociEhO7AdWD3rWn2h+DCUYSrACWAGsAFbgc1aAJHkH2j7R4fzzMBtDyed8K34ebRSfBVYAK4AVeB8FWCzOgbb3qQsf+54KYCjBUIIVwApgBbACWAGswIlQAEPJibgM74mW+HCsAFYAK4AVwAp8BgqcFChhsTkH2pxLj99T4lyfz+/XgwayHTT/cSt20uw57vPF5WMFTrIC+H78iFfnpECJh6eXXBscnBMuVcn5Qo99AcW5ZBhKnOvzSf/qRgh8lJnoDaf0iRy0EzlofrqiY9o5PnuE4akJQfgNp9ghihU4gALHdz8eUwfyORV7IqAkXBedfi1X3ZgcpYtXNyanX8sNK45xziXOrwGGEuf6fLq/npKoq26tML8Fg87lFFsYklVVrFUctDdxMf9xK+aiGXQ21+3xSesaXVh7dC47gLPrk7mul4Bzvr8CnuqyUvSN3C/1NZ3vr+GHLIG+0Vzc+ZC2ffZ1uQQl7gJZYExyfGJ6TGy8VEx9hfWopIlrTIhrTPAOlfIDPdAmjvRWNybH1mo4XP5eaOK8dgwlSB91QfmrEvgZoH02IM4rLdroq/juWuWfdWrj2dYP5O5z4L4lHyoDmTSfcW3A/psXbF6Q/u7K5KXSwJ1PLtPmfcWNbZp8tzZY7uP0LUmn2IH6hy/68zzs+5qkS1vMr9He0gUx86CKlO3zM+eT6EoPt8Nm+xTefXlLF8Q8nFkXm809xQ403N9yaKe2e31j69WLrTdosykHlRndMT91NoUuny1NbX68/rhdYy8pncf1HYf22xzuRshNgy+vZHvYpMOvGXtpKi4/nV55tbYwfaMxg/n5Hk761cXhRvR9Y/sD7VM46Vfnh1zNTwqU5Rcfz6xsr68s3u8uCxfsd1Ps3XTJtIGFoQbX7SQIac6N9ZXZ83F7l2l/du+ZwvLWVF4Zf776amNx+kZzhh8DSUH6gOu6EQQg0w6Qn0wbmNt4t7H5YvrxdaPqeF10fD+1OltfWGbKzc6MkDlobIfWkM3mSqJKE0NgR0H6JRUZigK5e7x+jR+TlJUkZlNfMj90jfhAWoH9ocSdFPkqMyICfUiSx/eLjVXHisnD3890xWhHplUkdCbx5UJ+oEf+nRK0ITRJ7EyXquQYSmwUO9C/LkIJSxq/0Jtvhl/HFBzJuHUgI+0z7wUlXG3X9Fx/hsTB/Q8Hda4nl822Gd1t/nUCJaiEvOuvH9YruVyhzYHIyJMAJdA2rmfe9ddDdUqH318lCGADJXBcCW8dXrlV5OdAOnv9nae8D5S4EYLE7qVnl8vkArE4oODM6ObV0wF0dccHJW6EILZ9+vnNmihfIdcrxnR35Wl7PF3vQXcODiWAAOIPemcBcUrn8mSfLsjDgy9PPzO6eb3YqvOxQokbIRAIxJ7ioJjSqxMLtwpkh2xyIrEkr9ScV2oWiSUOLxA/KLekpkqjDPOXBfiFZebWNGWEHhkDsdncgKyW3Bgv1C34ywL27Fs8NHnmPCn3kKfp8NS+8MT9oYQgpMEJSVIeBBE3wjsoPtFXQB6VagmtSTKtAkEJ4hLaXwJDTFLCTz6U8BSRt5r1by9VvrtUtlSh0Qjhh7ZZbK+6FtPtGIreYvLLXpVTHguPgNibHbo3vRVve0sXzQkJAgKKCcQNzaah08pv6k8vdJctGqLj6Cc5gbRWV/CiV//2YtGjrBB0IQggbmwxDxfH3q0vWerWLxrj4oWUewP4Bvc363/QV7FZm9RkLHPFU8KRa5Yvp2QzHSSkd12L6W4cH13ouLzS17pQZGddi2m4OBbZOWOKpuvdq0mQstqIy3+b8eRfky7dCznz12m1eSgnKcoJPPOTlKF/ynjw8zijAXXZZNp6xvh/Zoz/Z+bEH9GW0XsGEBaJCBBaOzl/KY/+lyAAdJBM/ODFq3doW76cY4UJ38TKa2Nza6/WlubunSlADzoISm60VvaMLa1ubI31VUYIrQ9Ap9jCrP6t4eowayFsLltReHYEZp6401Z7ZZHpKQE+OV2Tr+bu1AUBu6+r7/1MbDOou0u08Il2/d3G8tyd9jzaTsP9rWvN5t6nyyvrL570VTPtZHM9kZ1Mzdny3PZH82vrL5GdTE8JbJDcqOqn6xcydj1Nkt453c+25u7UHWhmx6H9U0uvV+dmvmnNRv4D5Cn5urWiZ3RhdW3r8eUK5Jmw8aCIgzJUkXAg8cj/Zu3lO+a2OmiknCh+KdUDU9Mrr5YW5u526oMF0FNrn3/5AZXfzUtrvjw+s7A6NTN+tT4ZFeJGyPV3N67meyHFhFHl1aeVqCEhz83MyvbywuztjjzafuPg5o322t57T57MzI5cMiD7RXm311++ZW4rD8pRFWy/5JqBZ6ic+51WT0xi7wuUf2WoRrrTkt0IuWFomy5/qNdMe26QPc8X1+ZnZ643pHvvPAFGNs7MXm+tvfJkZGp5ZuhGaZiIefVt9lmcAOPgdl+OGKV7BacnREGdxfm3N7bfbWxbpaZ1Y/sl0zrf69QhnUV5t5kXZe3lOzr/KS+N+fL49MLa7PMZG48XqvQrbmzrxOoZ7SFH61Jz/bm+m+f6bpaa623ODv7LVWgMTVqZVQROQKapohDCAVcRoYqiEJDtG6KKpdwYQOwfmahJyYyJDNsXEJlQckoYGKGKEiJPidA/UJmalJYVHxlEYYoFSoL9I+OSCxLiVRSdcBXR8ZG0DcHxKmQD4MqCY1I0qenxkUH72uDgrPfuVT6nzPtDiRsh8A5PQ54S4KOMiY3gkUcGJZk380WREodQIo705nD5K2svHXKJ82vwwaZv3AiBvs40lSeFLQyIT5dlD2hgR7AXlLgRgrKaiplsKewQgbigOOea2kL3QFzTXLVpCIYdHBDrKo1TmfD5wI0Q5Oh0qyUKKQ8AnrS1xfA4zQeeOxDXtlRvGsNRemOL+WmaJ8qfbypH6QJJ+OWOaudQwg9OXurWv+ozfXet8ge95W96K7ZaVXD6ximUbOkiUb11LaaJNKqjd3hF3Eipf9e/JddXASAgJcVh13+HoMQNePu0/V1SI2QRUpQTcuVXCbmRVAlAjDwlnjwvAlC9KvpJdWZ5siPBpiIAoIOHyxWGN0zSUHKKLUy7sDx5WRfoyeXKUutG1gaNcDoGQcnMgBGO8ZLYqocvmAhiDyWnuD5Z/VuT3TkBgCvwLzg79oIJJSyhuvbrJ/cu5AWAA0x47RrUgTijdx1OSHlySd+U+kfrtJ2G+1uz18wRQi4pUVU/2o1KdlDiBryz+rfGuwq8BYArzzz3dMsWSjhBhkevrxV4M9VD9t8/l+/HoeiT+ete+w7tl4sB1yu9aXjjTjmEVwgBg2+eD5SHCwDbK75qcONRRRgqMNA0vPh0wJStZk4EuxHwIiJPSTD01lFzxG6EQNu9PNaZ4y0AhEdK7fD2N+WwHDr//FCjff7RzlxvApACZdXgxs0yBbLH4XSSGyFI7V172nsa2V87vPmgnMqvG9yevJDlTQB3EGkcpNIJAgAg4GXdWBhqsKk3sXvpaWe2twCwPZJrhzeRDuiUARCI8m7bQ8lUN1W+eYiuV5DSOT/enedNAo4wtmZ4jZ6ei2ycWRw9Ey/kuhGCyNqxxbs6mlccXqngirHF0YGKHHWA166LC72h2TfsdUs6T+l8yktTP7R5vxxOLyKdeVl75ycAWxBb/WD167Jd05EwGj2ta3RluFh2yMHC3HwOQYm5+Zz9CbL8UvXluQ79ExwPdWEF9ROLE5ZaoZdzSQKIw3MbywsyQyJjo1NrK3Spfjxn9ywTStgW7PCHTtiQRHNLdoo6MDQqKq+hRBMAn148NEX1zfm56eERysi0ynJ9spjNY4vU+VX5yLxTZFh6VRm0gavQGlrzklXyECU63P68cApBgP2hhCCAu0AWFJ+ZkJqj1iTKxIckX4dyO4ESvg9cg/Pddz8/4VBSWGVa10UmBvh5ca03vxMoya+oWCuP0Mp8YT9Lk6/FU/JATWkbnlv81hxs+VV6vl1/OZh6IAhMy/1hZTACmsYW8/0EISohvrDsZak/3Ce9z3SYr8ZQliQW7OcpAWJvkbdfWOL6xYxSb2+pSCwVWTjAKZTQHpSYopJXpVa3sPV0ds6LxVYH3fpNtJqy37PqlwhKWNzUqFv/EB5Lna+o6M+yzlTTh+81fQOhpC2OzsbcYbO5TCixhJgsdWpFyOchM4+tDxRw2WwEJdezLF5ZNje4YXK+1+pcsYcSFjeqbmztfAql55FP31g8PSvntVSMi8w8ttqXh+w03N+i7Qytn1zszbL6b+yghMWNqn+6TttpP33D4gSV3t+ygRKmgK7vM6GEth8d7m8aXbicDwgCeURoz0RQ/cTCxXSqCiAOzm3svDU+t/Ji8kajkjEZ53z6xo0QKNtnpjtTaVPtY0r+BMQ2ji62qqj2Ji8fWeiz2mMf4/KnQFk3unJWRY1PCvPYcj90xbkRct3gNm1/WPP0/AVrLNG+0zdwqqgzmbaTIAAv64Y9lNDlK1tnZrvTCAL8KVDWjy+2qaj7OqD88Vo/tJ8gQGTjzNwFSkO2tmd2ojV8x4nCrMi6D8QheU2dt8YXVl9M3myM97KOwc6nb9wIQXTL/EynNSbJPqbkT0Bs/ROrnTLDyPzlAmQnHC+SLi+svph+erclw1nnYDV1p7tgpsgUofXneuvP9coUFh/t7jycoEL9aTVyNgCuLDA0KiQyNiQ0zJsrcgglLL/U08ZMCkSAOLqwNT0MPsXttTmGEjZXKPREtyEZkGUoTYLuEwglhmChpSvjKtJNFeFC0jGUEAAIqakoMiBLX56KnSUO9d8fStxJX3lCWpCPF0nygCg4Qq3ZNZrufV0d1meT6GT65pOAEoIAXJ/ADmPu1HndD/oq3rWkG6ATZE9PCUEAjk9QhzH32bmyb6+Y3zan6f0sayJ2Q0lwZsFbswU+COmFc6YfdhvWukvg1mvaNgYjr4wNlGwbIcS4kdIzHeavIygvvYsxJQedvmFCyWu93OaaMv/dE0rYuWF3f5fy4G+obeif0lrN9IHOoMTOU4KOsoESFlvdNLl0RsWjoWR5oJiGEjqAVFENoYSeLf7wUMJiq9smFjpUfNrOxb4iGkqYdi72ZtF22k/fuAIl9p4SWvAD7TChhLYfleBvGl0ZOE1DCQ0BgVUTCFaYFbkJ5EWXF2cu5tCDmT2UuBECv9SzA8OLzybnnk3OTa+8cg4lpwh14/TbpYW5qclZuM2sPu/NtreHNsOdULVNrNAQIDOMMKGEtj+seXrmAoQGtDmEEmnqmYFhS6WTszMr2/tCSemDTbr8yMZJBCXuhKp5Fk4kTU7NwG12ee6SAyihLXFlh8UPK76yONNr1dkeSpDOfUOL489mnjybn1555RxKThHq5qntpYW58WczcHu+zLyOZNrA4nBjiOC9VnsBIJApQmWKUNptxjxZTkCmviyVmpcRRsan5Kam60tqqlS+PIdQwgnTG7J3fLEE8FLXlaktT3E715RZOEGAvaBEEpSWlGfIM9QbDM1mQxoMq2fElACuTGWoVHmBvaBEFJyiyS3L1tfoK9qqylIl7D2pyMaeL+rf/aGEEIVHq6JFBPTCuRM8SVhWmJ/VJfCeYjkJdEVLb064p2TX6QNxehkVO4I8JffiKS+05nTZ6zLbwRtNzWwbLOm7oSQyA0KJpXDoKekMtnOBWmJKmJ4SBCUH9pRY7sl9oSShyEB5RICYGWsSU1TiHErcSKnP2X+xn75hcVMjb/5NdJR1Spip5F5QYh9TQh/lEEr28pTQg/0H85SIVK2XW9I8LVE7p9j+JXc3bpX67cTE7Okpoe1EnpL3ghJHMSW0evvu7Gs/KmFfT4k7iMys0cdKqKd2Gwqx+RdCtlfB5aXZNg3UCk5btM87hxLkKWlU2npz94opce4poaFhXyg55ZV/eWmqXUMFWka1zx0aSurHF5uUVq8GfWmYnhI6ca8dFjcqq9ZAe0dAOqSEID5FCfZQcsorv3fRqrOLnhKHdkKTBFJ5gOPo1L0MZqbLFKH03A09g2PjL2HxYzNrTEqJtWNk8WNza/TBQggluSi4hAAoUc4lOUGF5nwqiogggDyz8XSsZR78IFBCBmSVmksjFH5CLtfdL6201AolaAKXAwLV+jqVj4AtjC+oLEaJp7gxOZW6IMAmA/N0xuIohY8AAHe/NH05hhLHTOYClPDkioSUEH9P6CmRBEdokqUix2UxG5br+2hJsDjSmw5xFUd6e/h7oVmbkw4llkF6KA0uXIFhZOVlW2UIJkByWfmrmvhYId/DL+xah/GhJTCx4T8AACAASURBVNaEsOQfS6diSnJ0us0SGdQKxZSYo2G8m0Da0qxnxpQsloTKeQTgScv02d8kWQB/DyhxIwT5pvKVUhgPK5CEX2wxO48pQZfJHkrcCEFSUenrWmU0D3j4hX19rmIwweJ9OSCUwHUflkDXlKF/2h3oKvVp+7uERrNYIGAJ1f6Nb6Izrc8x7nFjKQ8mfSQeNjEl3KQeJ6tvmNM37FOeSZfmZy4XB3py2b6J9jElgZ5cjtA2pgStamGuvmHGlACfnEPHlPBCG4dXRlu0AQAIfJLaBlcmaiIpDxkdU8Lz1drElEz1GZCd9jElNqtvUEzJVBeMveDKM5sf28aU8MIbRxfu2qy+cT2mZF/7YUyGn6ZucMUmpkQupmI7UEyJO4iE8SVnsqViAVsQWzqwynzCZml6Zicup0hE9MMxgpKzyXAWAHhlVA5uMqGEpemZGd+V/78T4pTe9dHOXKmAIMTBZZ2Pek+jGBfHq292xZT4aehYEDR9sxeUEJqLz8cvpUqEtJ0ISs4lw3uZ65XeOLjLU0LHlNBhKG6E3KGnhHATp1yGMSVyHgCicF3X0KViKhbHCZS4izM6J7Zn7xrpdb8sblTt8PbDczlBHh4cYazu6irTU8LWQt1s7O9dnEU6s/2S64c2mZ4SpHOixJM+3/9OiJMuUTEobuLw0s6hntOUnQQBPKPKDMasQMEhn10N1c2IRZh/DdXNNmOKn7qqqixXLrQ82HAVMXlNBsubYNy4ocnVdTAGFoj9YvWmGhhTwuLHplea4gPgvBjHQ51trIrxg+TH4fkz51D4USZzvlIAAJsbojY0pIZYXJg7MSW8sFJzvhI9G/iqq5meEhsoYYGQzKomrb+YAGLfeLOx0QIlIaUVBbHIL+irrsaeEpsLSv/rApQQgJSEBsWmxiZmxqs1gX7OpuLocg+0w3x5WmytJv1aLofLX3i+kqBK+u67nyeokhaer3BO8Zmb8/I/WKArQQBRqHKwHa52+XGfca0mOUtMERuLG1BTfnqzv/LPL5Q9zA/241KPKV5B6qEO47dXzH9+pXy1OinTgxqcGppND/Ijv24vg+nmOObqm0Zj8as+0/9z0fDUEEOtdtkDSmDffSSrbwhA8OTVhtI3vRU/vlg8mBdEr/o5kKeEeZncCAEdUwJhBa2+efLvGUN/H9/cJbasqkD5v+LGylq/Sx39febEH5mxJtR7Si7k2b+nBHlK5i9mWAMvnK6+uTKyZrP6Zs/3lBzF6hs3QhCY1fX1xMbmy9dzzwY7CqLoOQvSN6X26pTD1Tc326v7Hq/brL7Rdq+vbL2zf0+Jk9U3p7wT6x9v2b+nxPXVN/vaP7v27ebSvM3qm6utNVeGV5irb+CYHZTfdP3Z3Ma7tZWlexcrmTElp0BU0cUp+NPLd8uX4XSDGyEIyu25N729tLI2eeeM+eIsE0qY+Zcu5yJJqdU3lveRfNMNI21RoyIFyrKLT9F7Sh71WtNPeWlqBp7Nb7xdX5hirr7RDW7vBSXuIPL0RcshL9+uXEbTQ4Lg3Iv3pjeXV1af3emouPgceUr+FChbJ3at1tl6Oduk5O4JJTvvcYHvF1ldGrxQHr7zBLgvlMzfrKShBA638uzWW7MLm+82Vpfu9VbSXhO0FMuhznemrDozoYSpM7ou6H0zcPXNyqu1laXbnUZaZzdCENexvLYyeOgQV2an4WwfiAPUppKasxW1bRW1bYXpam8u5Xn1iiopr4XpucmZuRYoIQjAD0jNrmwqM9aV11Ylh1HLBaILW5ODqAgeqAwvMLqwtaKyzlDdXJQeSfkmd6CEzfaPLWopNZiLDNVFeQaDIYuevrGBEoIAkhiDsfGMsbYxR5uBPCUcEBhb2GQ0VhbrKnPz9dhTstfFdQlK9jr4CNPp18zLtcHoNfMJqqQ373703Xc/f/PuR0naNCaRcE7tw+AfEkqORoTd0zdHU+YensmPUDiATww8X13U9d8kFEe/jwFs30SbN7qi1TeeoblnJ19cL7bEwzt9f5qVWg6S7X1sduXYg1rlSpkoj09a1/DCi8fd+Qda9+t6+TgnVuDjKkD7b5hmoHVDzBS0zxdZEYRDhiQb9WEiu/X8QGz/piL6DuUKfajlwYwOxL4ieu2SzU8cAZy+sUnE/zIVOClQYr/EhnOKn6BK2njxxp5IMJQwL+EJ32dZYlrh20eG/l7TfJbpETmc5cxv37C4UabhNy9evVuag68Hdf46V7pbOcTO4Ux1/aiDmuR6yfjbN65rhXN+UQrAeZziRIeIcHz34xel8OFO9kRDCecUfM28jY8E/ev8bD89T8nJ8Wp8mpYctBM5aH7n7e39fz1p9rz/GeESsAInXQEgZjpOmNbi+5Gpxgfex1CCPWmfgwIH7UQOmv+4b8uTZs9xny8uHytwkhXA9+NHvDonBUqOVgLsKTlaPXFpWAGsAFYAK4AV+AAKYCj5HPwEH6Ch4CqwAlgBrABWACtw3ApgKMFQghXACmAFsAJYAazAiVAAQ8mJuAzHzZ64fKwAVgArgBXACpx8BTCUYCjBCmAFsAJYAawAVuBEKICh5ERchpNPr9hCrABWACuAFcAKHLcCGEowlGAFsAJYAawAVgArcCIUOClQwvMSyLQKRU6or0rG86I+rntoIsNLgg8t3ZdzIPxce0xmnD/1RVmPiEx1uLMPh345yuAzxQpgBbACH0uBEwElkQZl6rXs+MbECF1sfGNi6rXskOKo91EEQ8n7qPclHMvyVNfcXpl7NmgIoaDEL+3C6MLak64Cf46DD8cflSZ+Gn1ZTpTDN1sfVRW4nEMo4KfR63Mi8HU5hHT4EKzA0SrgGpSI5IHKVHVSdqxaLZeIj9YCZb1K1awVRUp4AQK0iSIl8Y2JMbXqQ1eEoQRJpzld9qokcH8ZgTi/LP9lf9V31yp/0pUYzz7GUXl/YwjgrpnNGLhsP0KwRBWxw3/MvHEJ/eRGCHwbfp059ofMsT9kjS77Cii82CudrpoEoWX3NsZ7im34g+WT2jCy8aRNa181fey+O5yU/vnR5mAO6SAnS5b/9auXMxdcVJibeX1lpCEQUN+XdlCgo28CkBxpwd3t2/pgJ/nZ3BDjw9d9OQ7uZY5PYuXVcfiV2sXpaw0ZUtLq0QUZ11ZGGoJ51hQnVcAPVlvyBwHXmhNfVdzzBH0d9263PpzvSEBH52tvAyf9KrTT4SVwWAJLlndz0/XrYl/jIVKYOl9vzvRnXGWQPrAy0uCqbgRA+RXk4RU7hP2uHCLyT9DklOTrTNk5mREyD1cOcT2PT3SJNgj61NnS1ILyokCB46+0svkx2uwkMZvqHFwvH+f8WAq4ACWktywuI0zuA0gB3zcmKkFD9/7vb7RMq9B2p/DlQl6AIPNmPtoQmmg6U31VssNVgaEE6eYilLCk8Qv9uUaJCADB+4zHh7tY9kftBSVk/JPkaz9KHHmn8N7pYizfH+YqriQ8tkIJLHCvdMuYxFddmJobyPLcKYQxULEi6oZXbhX5OPjJ3k6HKc6gxGKY6wrvDyVAHBDub2PGe0EJEKd0L09dKg4WifmBuedG178uskLt8UGJGyFQts8v3K6JlXryfdQVdzZG2w//THJgKDngdbER/DD/AnFK5/J0X0mI2IMfmHtmYvPmaWtfd3xQ4k5K7BvMYewngMjTO7+sIr+sQuTp7bAEXkhRWa1JowzzlwXIIrJOVzalhxzl9Kh/ektBrKVqIPaXBQCCcGgG20OTU5En5R7+jnZYLE48PgX2hxJSEKlMUApIQBI8FpvvHZkVJrV+/fk9LdO2p8i0CgQliEtofwkMMUkJPVz5HxJKeIrIm026t32GH14uXa1M0Ajhh7BJrnddi+l2DPVMGV9Ytm2knlxh/nbD2z7Dt5d1y5ValJ8A4uom43Bx7J360sVuw7JRGS+kni9JobzBWLLZa3jdXfAgR+7HtTw37+R/UF+02G2YN1jzc3yC+poNP+w3rldrO8pd8pRw5JqFntRshoOExfaqazHdU1J3ckx+2Ut9ALwWQFzXYhoujr3fULJyQT9riqTt3OtKseQ1kQN/k/74X1J6HoS0/1VydS6VU5IXcu4nyY9+lX7/f8cbStBQTaZvZj/7Q/Yz6PxAW8blTrq7kVT8QlNdpbj069ikXSMxW9ZjCyUWztgrPbxxavFKAV0s03IOL75hcuNCxq6nOpZn7oWZN/N3qwM5dl85ZwANKmcvKEnuerGx/Q5uIzVyjrWL5EeYLo2sLKy+WFldG+mvj7OgkmfhXSozOmT73cbDch/C6jIhOdKwvJaB0dXJljSm/bDt7faU0E/kK4tzdzoKArmwXSFPybWWyotjyyura+P9lRGW9mbjQfEISURxNuKCO/b2ICcKyycVeVZWFucGO0vCBLBzcJjfj4BVszzVxitPni+uzc08v96cKUVScBRlDzauFVDDGz+mpK4oHjUJpv232nPlyP/BURgfbn3dUdd/79nEzMponwl5Vjzyv3FgJwu6EHbZ2V0SzqcugbZ7nTpkpEZGUokkqTAObzPLD+VRP9nYL+NQ93hk48zzGx2VV4aGJ1emx74uDXfghaKv1CkQpBvcpD1VVp3zb9vbT+nG1Ll7R2dH+dFZ2NqJTo0TqX+w9Oze+VKt3GH7py3cd6esoqFr4FbXwK2yigb7zGxuYKK5JTnQk/6JDMwrryz053LZ3MAIFTWDyWb7hKhiPVHPA8T+kYmalMyYyDBXwJ2GEjYIsBYIAgKVqdr0rPjIIFQIghK5NDouKS8pIYGiE64iPC6aqoXtGxwXh1wpgCsLjk7SpmXQh9P2450PpsD+UEKIwqNV0TSUSKIzQnwdO8oOYXTmzXxRpMQhlIgiJQAIFlZfHKLYDwYlboSgtNY8VSCF7RuI80uyBzSwM9oLStwIQVlV+Uw2lf+0rhDlR1CyZQyVsWE5FbWmmWwpQQA3QpCt06+XhftxORyuX3Ob8UkK9XBQ3WRcN4TS6VMZMN2NEJyuKEfpfM+w3jaj8+kbfnDyYrdhu8/83bXKH1zQv7lgetOmjmdznUPJhj4I1VvXYppMkTi5QCxugH/Xv6U0VQMgIHxLw67/DkEJi+3l2/J9crMJ6iZKU1z6tTorgioHiMnkxYwbN0QCHnR47Iz6LJ5Gcf3XUQk+kvK/TG/W0+lwiD0glMSdWZw6q2WWQO+zOYHlD1/SoyNKZ/E0tTfGHvS4FG6yF5QAIABA4JFza2WkwQollgmdoSaVAAA2CMo5++BCQRCqFAAB8pSECPjoWJR+ShAQW3r+7rOlsf5zhVF+tOX0zi4oAeLknqXJS6UhQiHfP7VxZAtN6yD4mOo3Rgi5LE915cOtocpwVEJwxdjC2PWqLI1csiveHNpgmY4JF8ETgRfUAqkp3cvjFwr8BFyOT2LTk1ffmENQOXT+MIHQJv9Ep4VF+KqaoZVvSi35OYryoZf0IE2fCwHEGb3r030lwR4Si/3r941UfuPDreneXCmHB/hK48MtKp0AAAj42V/D6Rs+9Pwx7RztzpXySY5PYsPoC2Z+eF3yv1kZabCBkuneXBkJy68c3qTyA3FS9+pEdyZkEb6qdnj1Gx3lSYpsnFkZ64gXct0IQWTt2MK9cppXrKez05gJAiCdzdnaQO9d3Sn0VmbfWBlpsNWtc3m0Oxfp3DD64kE59cBG5w/l8Xadb+cytJPkEXxV3YO1O2UKygwgDspq6Hmy9OzhJXNyKDUwMwxzaK19oqmxA0GJqbHD/lfSP63MmOtvIWCbXzke6vxK6icWJyy9siSQyyaAOCyvRZ+XHhIZG5tWYypN9uHu8+hrhRKLL8QfcE6BIE15S3aKOjA0Kj6/QZcoh52Dh6agobkgLyM8PDoyq9ZoSBGzeUCUkGPOoQCFDM+o1sm5JMFVaA2NeUlx8uBo+nAb4/G/H0CB/aHEnfRVqDJCZF4kwQOS8ChVvAQc2eSlEyjhBcBe76ff/ewQKnxIKMmrNK/rw7UyX1+htRN3AiX5pvJVY7RNfgQl9+KpEsKyTn9bCTsdd6703FnjlRDqwT0gLf9bswI+4lg8JQ9UVH7N6bJtHfTEcLh+584ar8ZQ3dz+0zdA7CX0kkWmbPTkFvuKAjy9/ISwLudQ8lAlQhdFVWjYKt7p7Bz1ayy2OujWbyJV1FOmpOIXFJSQ6VG3/iEqjup3ePk/TG+voi+0w+kblm9H4sg7mbeIjH+Sem9QIrA2wkNAyXibiq6OueMQSpgZ9t3fC0rQgbZQAsTZV1+M9xTHRod42k2K20/fsMiYmocrDy9VpwZ57WUJE0pYPE3jxGpXItUegivGVvuhi4jylOx4JkLrJxcv5VAFWoaH7ltjC6svxq83qv2sQ+a+0zfK9vnpzlTaMPuYEhZP0zS+1qamypQbnyz15cL2vBeU8FUN4wvnEqh2HlTxlM5vfLhFs2Nk88x0t7XefadvoJ2M/AQBEMfYQAldfnTzFJWfr2qcWKTtCSh/TNlDgMjGmbneTHTubG3Ps7GWSI61Q6A1se5YdL54a2ph9cXEzSaVhLpHYCzOfjElytZd9juIKeGrmp4ste/0D/LyEdpOygAgDtJUnb2zNN2dejiXiUwR2tR5qanzkkzhwJ9NBuaVFasR8bC5gYGhUSGRsSGhYT5coUMocfdLKzFnUxADxFFFHRlhTtUjgD2UEATgCqiuki3P1ZUlQdaHUGIIFlrk5SpSDMZwIekYSggAhNQjFlueW6ZPPjSxWa+yo14R/+pcgf2hBB4vDg5SJscmJMdqMqMURzkv6GT6Bi0MPuFQAp0iXsEdxtypc4a3/ZVvW7OMMjhg7wUlBAF4ntb837ZmoPwOoQQQhDtX2t1V+W2nbrW7dLW7FE7imC0PN7uhJCa/bMsA4YDFDTh31vh1BHVn7g8llnvmoNM3NJQoc0u39YeEkrC7v0t/9HfJ938Jt0e/2hdKeOmrqTf6BQCwJA3qkf8dFGx9kDoElBzIU+L8FrL59WBQQgB+YG7l5XvDT5cWNt8tjF0vDaGAD/awdoGubBCU0TU+92zwjD5Nxnfca9tASevEohUCykcW+4thT7070DW4YmzxUo7t4MQLL7gyO3shg053CCV+WR3Xhuenn81NP5t7vvpqfyiZerWyODc9szA9szAxszLduw+UtEyt7IKAa5aZPsv0De1ZcQVK/LI6ro9S9UI794MS5vQKE0rOTL91YL8FSmzKtGkYe/3LFoQVXJmd68206uwISpzY7xBK2hzqvDNGkpLI1Or+4ZnnN8uVexnmPB0AgUwRKlOEUr6onZLRUe7+WWW6VDQvwxZGxKfkJmfoT9dWxftwHUIJL6zUkB1J1yhR1xeroavYyeYQSjzlidp8Q0F5ta68ubI8yZPgMGNKAFemKq2N89rDU0IAT3mqNk+XY6gtM7XU6NM9GROmTizBPx2tAq5BCQHYbC7JD45Qx0u4zhrKQY1zEuiK2vrJhxLrKQNxtp6KHUFQQns+4gvLXpdBX+KuDYizdfrXRsugboEMOn9MTgnTU9IVYg0moErYA0oO7CmxmLQvlGhOl1EeEUtMyQGghBvgc/ZftHVmeDUledbpGzI94utfhkU7XpfhwFMCxL4dv04d+5fMkX+D29gf4ousi8YPCiUHjSnZddVsLqLdvweFErpwNuGn7Zqdv2CNEbGHEpQZckzP+Nzz0YtVeaEeEE084psut6RJLI/mJEdafHfzZjHs0w/qKeHw4rPrTbFeVHuzoRCbf2H5nrl9SzNtSdSDCoSD/TwlbeNLNCTR507sFVPi1FPiOpSwPHMvzc2d1TLsPCyUNE4stsftvpEtbSCycZe3xnpqdi0E+kL4yux6E+0dQVQRItiR3Q5KkP3nNL6oWFc8JXXjc7SnhGkMxyexoOnOxPzz/vaSKG8r2TPzON+XKULpuRt6BsfGX8Lix2ZXQgShi2LxY/NrS0KEu6GEH5tdqw/kssmgInO+ksYyv7QGKojVkXqozMDsDpQHYYc/4EDvSEVRhMIPYrc0tbgszQmUFFQXUNM3vDg0fcOV5xabi8PlcG6dLU0t0ydjKKEv34fccRVK3EmRb2RGuNQ6x39UVsbVJyibteIwX75UiDa0j8o/HJT4ypw9vh+V5ZZypNX15vE0KkakQF/6ooyaY04pMbysiY3y4PB8Q6+e1Q9qLPe/ZVAfTfeBjkEgtua3pG9UREV5cDgefk0t+uls2IG6EYIcvWGpLCKID9N1+rxbGkvHasl/N56655W5pW/KYCyCGyEoNhnWykIC+HyOV1BXi4m2x8lZcwITl3vS0rm7ojhTSgyvq+Jo+x8kWhyblnrvqKmneWVu6WvdPlKz/E2hl3+eOPIr7ZWh0LZfpNQWwGkmjp9vy/faRiOfzyf4KlndW2WG9YkNxI+l3J/y8/KwxpTwc8IG/1mpopyrwtN/ntLVTndhLM+22JG/CI2UEUDMfG7bK52f3PV8vn+v1Tejy/dtV9/wVbXfPLnfVeLHsaNDu06Tk9K/MtYRxfdAE/y0PehfNH0TwIdhInBQ54fpHyzdKY+EHiBOQEbP7MJZ6zQEW9vzfLI/zZ8RG8GoziMwU3d26GlPISAITkjT8PrTZo0CAIFPUtvg+rPqCIu/GohTrqw+u1IS5OEBYykebqBYBBYnoOLhm2dXTWEefOChrXn4cshkeU7lRFaMbDxuyw3y8ABeyuKri897rE/w9vZwfAqvry6cS4eDJd8/tWHo5fPziXRLs89PALG2Z/HphULYPj2iCi4M9Z6G9boRAtXZ2YXbNUpfiWX1zcrTdg0sB4hTelaf9Z5G9tePbNL2Gx5u92VS7SGybfZ5d7qTejk+hZdXZmk7Wx9tz5xLQfkdXxdOgGFwi1n+fHcGbc9kd4GN/QQBIttmqTyMa4Sq4Hhmdj17s3Cv3Np+OJFVj14Onc9BOuv6V6cYHim2tmfu+aUMH9iYUTs55ZU/sDpzJg3qLPTLbnyw9bw7mT5fUtNr204suj25YGcnX1X36FlfTYG3t5TD4Z86xWaxOOydCHcWa//mTRCgvK6hc+C2zVZeZxvu6qutNemyQ8TQa8sGATH5LYbsSEAQp0BQck1DSoCYAGJfldHUWB4i4LD5MZnVFSopbLRcj/hccw3aBwJL17ojqUhpNOcr0c2iKW9JkcP8bA9NYUWhH4dDhhbTZCNRVVaVZ3px+OhXxB+AK0sw1Cu9STduaJq5XisXUTY0lMi5JPPwhISk0lIDEp8keSwWx92ddFEf+rrgncMp4CqUAGmcUgW7zsNV4+QokuRF6qwvT4upVadeywZAMD2zEKfW/vS7n8WptdMzC05KsP/pA0IJ8A5OeNBs+MFAxY/7jBsNqVkSSiKWR0ClKe/llaofXSgZzA+k+yOJQnn/rMk2v2Wwf5Cv/KZN/+M+40pFLL2qheUR0GgqfXml6ieX9BPlMVT6HlACx3uvoCtNsPyNGnWr3nBoKKHt/7OeoqFCBWX/waGEvjrw9SE13yMogXZ6Zirafpo68v+mjvyduuWsl4c1dgFiSttfpo7+PnPsDzlnKmG/E/qN+uG0nwfVabIVV1Uj8/S/HI6fpGRTPfz71Mk/ZE7+hUJBMdNe6RAF7rx42gOHRto8aJJPYtPQi6dnE23aOcszt2v21fN7FUH8/XttTkr/wua79Zdv0ba1MQ7fz8ZXNU1ZE9dfvt16OdscA7tUr/i6K+Nryxvb6xubz+6dz9p5wyw0jBNZfGVqfgMWtXIVwgfTWrSP+k03QhCY1fXN+Iv1l2+XJh+fy4e9P8qAVp3AQlYWvzlLnTKCkq+b6i6NraxvbD6+Yora0ZYfmNtw+xnK/+hKFVoNRNVrZ48bIQjJ67k7u7G8svr0dkflhdln561QBe3v37G/n7IfxtVeGp9d3V5dXb3fXU7XS/BVuv7xqdW3m6uLj3orwnbaA8sntbZ/anZ1e3N18Zv2fHTJWJwAJ1CC6l3cfLu5/Xa9D8bQIDvvPYeVIjspKOGrWp/9EGajr5flusDyHUKJZfVQ5aXxmZXt9ZXFh91G2n7nUHL26cvZ60a6E4AMF5jb9PVzpPODS5U2Ohf0Tq68+MHGizcrfdnI/qCiC/dmX2+sbUx8c76ye54JJSxeDK3zaj81DYd0RnbeuWC1EzUYDofPYnEQkbDZXOgIJ3k0ndg3s8OkALFMpSupbamobauobSvM0fgA6naTKHXltWcrattytdmZtWXIRcRTZORWt5QYavTVFRnhFp8QEMeUUeRBGSCQx+S3mKpbTDVtRenUeERDCYsD0UdfXlVSXleYrdeX7QklBAFoGwqTM3NrTCjQNa6oGR1eUFB8+nQZAAIkDovFIXdWZh1Gih2owse6ooCrUOJKWe+Thy8WShMV8txQaaKCL4ZOhTi19uXb//HT73728u3/iFM7XiuxV40fEkr2suFg6bsh42DHnvwWb3lrCN+/JOr6b1TFVo/IRzxNlk9q1Z2lpZn71je6ZvcMz6886rIllY9oJK4aK3BMCtA+EhpE6J0jrxFhkE2xbsTOwqjd3ZdAQC0Lh5NcIDjVXB4usIud2u0QtSmZw/eweaiwyUD/69AGIJQIAHB3tywjt7AIojfsJqF1O+6dkwIlDs8zTq3d2H53UCIhCIChxKGeHyXRjZMRdvd3lpeO/ErdctbDBWfDh7HT/ts32lBqOuDDGIBrwQp8LAVoHwmamEBmoJH4Y5lkXy/bQ5Nb+tGWwCDvCBIKuZGws8T+Gh1HyomGkkOf8KcHJbsfFw594vhArABWACvgigLINYJCJdAkxfE5S1yxx0EeIBYLjj6K0UFFdt2vuzuJNIFzx2wucpOcNGhz5UQ+xTwYSo4+SuZTbAfYZqwAVuCLUoBGEJpIsCeA2QBoLkHTNzAs3bVAYGYheP8QCmAowVCCFcAKYAW+OAXoyFY6lvMQ48fnegiHw0fQhqZv3N1JtH2u53uizgtDyRfXGZ2o9oeNwQpgBT68IYT3mQAABSRJREFUAmishe+MtkR00l6TD2/JyawReUcQmiAHCZbog10pDCUYSrACWAGsAFYAK4AVOBEKYCg5EZfhg0EorggrgBXACmAFsAInVgEMJRhKsAJYAawAVgArgBU4EQpgKDkRl+HEQis2DCuAFcAKYAWwAh9MAQwlGEqwAlgBrABWACuAFTgRCnzmUMIiAkvuvFqbedpboXLx3cMfjAdxRVgBrABWACuAFcAKMBX4zKEEnapXRN3d5af1oXbfULB7kR9TGryPFcAKYAWwAlgBrMCHVMAWStxJkTg4KS4pL05h/TASKVAolBmqpJy4uAS598d57++BRLF5zTzgZ3QtTlTDL6fiDSuAFcAKYAWwAliBE6rALihxJ0U+EelREUE+YclRQV47Q7jYPzY9LNCLJHlAEh2jifcG+58Mi+Ae67Zjm2NLbKCEFVh1f/1ukVDEZnG/YnFIgvyKzWG7c9xY8FOQDrdjNR4XjhXACmAFsAJYAayAvQK2UCLx8QYk8AhJtUIJRxGyAyLupMg/Jlkm5jkcyJmJ9jUdbQqzLvt9GyjhxHQ9m72gBCSLzSFZgOQAFpvPYrPYLK79sSjlaK3FpWEFsAJYAawAVgArsK8Cu6CEHqFtoCRMEysBPJLkIShRiD41KAmpezh7u1AuJAkey53rZvH0fHWKg6Fk3/aBM2AFsAJYAawAVuCDKbA/lLgDWZgm1psnj9Cky8Vi/5jkTw5KCCBOOvPk+da7rZc/3BytDWbzThEcFsl1c3c8dwM/CHnM00+4fKwAVgArgBXACmAFbBTYH0oIEByujZMAnkDkDUhXoYR2unyUHdvpm4i20cWvT/t6AQ7pziHgJA5JuhM8Drnn9M1HMRtXihXACmAFsAJYgS9Zgf2hhASKUK0KBbe6Pn3zcTW1h5Kns/0JXJLlzv4TksMm+O4k6c4BJAsvEt7TV/RxryCuHSuAFcAKYAW+QAUcQAlJ8lBMCUmi2BGxLC4Drb7h+ES5uPqGTXCOdXN+qWyghCUs7FsaMck82e4cDsE+xWaf4rBhxCux5+qbYzUeF44VwApgBbACWAGsgL0Cu6GE4xuoztak5NJbRKAnQQBSoAiKTY1Pzo6NVwdKPJwDAfrVvqajTXFugw2U8EOq7q5NN0XxCRJwWBx3gsdicQgWz52zp5/gaK3FpWEFsAJYAawAVgArsK8C/41kA3ojWCTB5tH/kmxAsEj01zkE2P+6b8XvmcG+RmYKDSUsTkDJ/TfLC7M3G/P8BGx3d5JN8kkC/j3lzoGLgvcIaH1P8/DhWAGsAFYAK4AVwAocVIHPHEpoUuEQbOjyIXmATbJZbJLksdlcwMbTN8c7y3bQ5ojzYwWwAlgBrMCXrMBxQQlNAx9lh/aU0LW7u0P+YLO5bJKPdkg2cAIl9IF4ByuAFcAKYAWwAliBD6PAFwQl7iz4Ild3ggfnpAiSYMFVwR9GZVwLVgArgBXACmAFsAL7KnBsUMLmEce67fHNGnTC9p6SUwQfvlre8uEbRCRsttOXlByr8bhwrABWACuAFcAKYAXsFPhSoIRkw7kbGFbCBu7u5CkWlwSivaJcWQT3eInK7jLg6rACWAGsAFYAK4AV+G88obcrG1/kc6BNKPI61k0g8nay+coUNr/yRT5A4M0T+QpE3kKRF08g4Qq8+B5+Ntnof4/VeFw4VgArgBXACmAFsAL2CnwpUAJZxMMHbXyhl8jDW+ThLRBK+EIvh5u9UjgFK4AVwApgBbACWIFjVeD/ABn0rOpJrmukAAAAAElFTkSuQmCC;" vertex="1" parent="1">
          <mxGeometry x="827" y="160" width="423.79" height="110" as="geometry" />
        </mxCell>
        <mxCell id="44iAgMgQiu5mQ_kwNiWo-46" style="edgeStyle=orthogonalEdgeStyle;rounded=0;orthogonalLoop=1;jettySize=auto;html=1;entryX=0;entryY=0.5;entryDx=0;entryDy=0;" edge="1" parent="1" source="44iAgMgQiu5mQ_kwNiWo-44" target="44iAgMgQiu5mQ_kwNiWo-48">
          <mxGeometry relative="1" as="geometry" />
        </mxCell>
        <mxCell id="44iAgMgQiu5mQ_kwNiWo-50" style="edgeStyle=orthogonalEdgeStyle;rounded=0;orthogonalLoop=1;jettySize=auto;html=1;entryX=0.446;entryY=1.009;entryDx=0;entryDy=0;entryPerimeter=0;" edge="1" parent="1" source="44iAgMgQiu5mQ_kwNiWo-48" target="44iAgMgQiu5mQ_kwNiWo-45">
          <mxGeometry relative="1" as="geometry">
            <Array as="points">
              <mxPoint x="1016" y="310" />
              <mxPoint x="1016" y="310" />
            </Array>
          </mxGeometry>
        </mxCell>
        <mxCell id="44iAgMgQiu5mQ_kwNiWo-48" value="dagsterJobMgr" style="rounded=0;whiteSpace=wrap;html=1;" vertex="1" parent="1">
          <mxGeometry x="960" y="320" width="120" height="20" as="geometry" />
        </mxCell>
        <mxCell id="44iAgMgQiu5mQ_kwNiWo-51" value="FuncDispatcher" style="swimlane;fontStyle=0;childLayout=stackLayout;horizontal=1;startSize=30;horizontalStack=0;resizeParent=1;resizeParentMax=0;resizeLast=0;collapsible=1;marginBottom=0;whiteSpace=wrap;html=1;" vertex="1" parent="1">
          <mxGeometry x="980" y="340" width="180" height="120" as="geometry" />
        </mxCell>
        <mxCell id="44iAgMgQiu5mQ_kwNiWo-52" value="build dagster req" style="text;strokeColor=none;fillColor=none;align=left;verticalAlign=middle;spacingLeft=4;spacingRight=4;overflow=hidden;points=[[0,0.5],[1,0.5]];portConstraint=eastwest;rotatable=0;whiteSpace=wrap;html=1;" vertex="1" parent="44iAgMgQiu5mQ_kwNiWo-51">
          <mxGeometry y="30" width="180" height="30" as="geometry" />
        </mxCell>
        <mxCell id="44iAgMgQiu5mQ_kwNiWo-53" value="call api submit" style="text;strokeColor=none;fillColor=none;align=left;verticalAlign=middle;spacingLeft=4;spacingRight=4;overflow=hidden;points=[[0,0.5],[1,0.5]];portConstraint=eastwest;rotatable=0;whiteSpace=wrap;html=1;" vertex="1" parent="44iAgMgQiu5mQ_kwNiWo-51">
          <mxGeometry y="60" width="180" height="30" as="geometry" />
        </mxCell>
        <mxCell id="44iAgMgQiu5mQ_kwNiWo-54" value="update status vi mem map" style="text;strokeColor=none;fillColor=none;align=left;verticalAlign=middle;spacingLeft=4;spacingRight=4;overflow=hidden;points=[[0,0.5],[1,0.5]];portConstraint=eastwest;rotatable=0;whiteSpace=wrap;html=1;" vertex="1" parent="44iAgMgQiu5mQ_kwNiWo-51">
          <mxGeometry y="90" width="180" height="30" as="geometry" />
        </mxCell>
        <mxCell id="44iAgMgQiu5mQ_kwNiWo-55" value="dagsterClientSvc" style="rounded=0;whiteSpace=wrap;html=1;" vertex="1" parent="1">
          <mxGeometry x="1280" y="317.5" width="120" height="20" as="geometry" />
        </mxCell>
        <mxCell id="44iAgMgQiu5mQ_kwNiWo-56" style="edgeStyle=orthogonalEdgeStyle;rounded=0;orthogonalLoop=1;jettySize=auto;html=1;entryX=0;entryY=0.5;entryDx=0;entryDy=0;" edge="1" parent="1" source="44iAgMgQiu5mQ_kwNiWo-53" target="44iAgMgQiu5mQ_kwNiWo-55">
          <mxGeometry relative="1" as="geometry" />
        </mxCell>
        <mxCell id="44iAgMgQiu5mQ_kwNiWo-61" style="edgeStyle=orthogonalEdgeStyle;rounded=0;orthogonalLoop=1;jettySize=auto;html=1;entryX=1;entryY=0.25;entryDx=0;entryDy=0;" edge="1" parent="1" source="44iAgMgQiu5mQ_kwNiWo-57" target="44iAgMgQiu5mQ_kwNiWo-62">
          <mxGeometry relative="1" as="geometry">
            <mxPoint x="1480" y="550" as="targetPoint" />
            <Array as="points">
              <mxPoint x="1500" y="350" />
              <mxPoint x="1500" y="205" />
            </Array>
          </mxGeometry>
        </mxCell>
        <mxCell id="44iAgMgQiu5mQ_kwNiWo-57" value="DagsterClientService" style="swimlane;fontStyle=0;childLayout=stackLayout;horizontal=1;startSize=30;horizontalStack=0;resizeParent=1;resizeParentMax=0;resizeLast=0;collapsible=1;marginBottom=0;whiteSpace=wrap;html=1;" vertex="1" parent="1">
          <mxGeometry x="1300" y="337.5" width="180" height="120" as="geometry" />
        </mxCell>
        <mxCell id="44iAgMgQiu5mQ_kwNiWo-58" value="launchJob" style="text;strokeColor=none;fillColor=none;align=left;verticalAlign=middle;spacingLeft=4;spacingRight=4;overflow=hidden;points=[[0,0.5],[1,0.5]];portConstraint=eastwest;rotatable=0;whiteSpace=wrap;html=1;" vertex="1" parent="44iAgMgQiu5mQ_kwNiWo-57">
          <mxGeometry y="30" width="180" height="30" as="geometry" />
        </mxCell>
        <mxCell id="44iAgMgQiu5mQ_kwNiWo-59" value="deleteRun" style="text;strokeColor=none;fillColor=none;align=left;verticalAlign=middle;spacingLeft=4;spacingRight=4;overflow=hidden;points=[[0,0.5],[1,0.5]];portConstraint=eastwest;rotatable=0;whiteSpace=wrap;html=1;" vertex="1" parent="44iAgMgQiu5mQ_kwNiWo-57">
          <mxGeometry y="60" width="180" height="30" as="geometry" />
        </mxCell>
        <mxCell id="44iAgMgQiu5mQ_kwNiWo-60" value="queryRuns" style="text;strokeColor=none;fillColor=none;align=left;verticalAlign=middle;spacingLeft=4;spacingRight=4;overflow=hidden;points=[[0,0.5],[1,0.5]];portConstraint=eastwest;rotatable=0;whiteSpace=wrap;html=1;" vertex="1" parent="44iAgMgQiu5mQ_kwNiWo-57">
          <mxGeometry y="90" width="180" height="30" as="geometry" />
        </mxCell>
        <mxCell id="44iAgMgQiu5mQ_kwNiWo-62" value="dagsterCluster" style="rounded=0;whiteSpace=wrap;html=1;" vertex="1" parent="1">
          <mxGeometry x="1360" y="200" width="120" height="20" as="geometry" />
        </mxCell>
        <mxCell id="44iAgMgQiu5mQ_kwNiWo-63" value="CubeX-Fabric-Scheduler" style="rounded=0;whiteSpace=wrap;html=1;fillColor=#f5f5f5;fontColor=#333333;strokeColor=#666666;" vertex="1" parent="1">
          <mxGeometry x="160" y="800" width="780" height="40" as="geometry" />
        </mxCell>
        <mxCell id="44iAgMgQiu5mQ_kwNiWo-64" value="Kueue" style="rounded=0;whiteSpace=wrap;html=1;fillColor=#dae8fc;strokeColor=#6c8ebf;" vertex="1" parent="1">
          <mxGeometry x="170" y="940" width="80" height="20" as="geometry" />
        </mxCell>
        <mxCell id="44iAgMgQiu5mQ_kwNiWo-65" value="DataJob" style="rounded=0;whiteSpace=wrap;html=1;" vertex="1" parent="1">
          <mxGeometry x="380" y="880" width="80" height="20" as="geometry" />
        </mxCell>
        <mxCell id="44iAgMgQiu5mQ_kwNiWo-75" style="edgeStyle=orthogonalEdgeStyle;rounded=0;orthogonalLoop=1;jettySize=auto;html=1;entryX=0.5;entryY=0;entryDx=0;entryDy=0;" edge="1" parent="1" source="44iAgMgQiu5mQ_kwNiWo-66" target="44iAgMgQiu5mQ_kwNiWo-74">
          <mxGeometry relative="1" as="geometry" />
        </mxCell>
        <mxCell id="44iAgMgQiu5mQ_kwNiWo-66" value="FlowJob" style="rounded=0;whiteSpace=wrap;html=1;" vertex="1" parent="1">
          <mxGeometry x="490" y="880" width="80" height="20" as="geometry" />
        </mxCell>
        <mxCell id="44iAgMgQiu5mQ_kwNiWo-67" value="FullyJob" style="rounded=0;whiteSpace=wrap;html=1;" vertex="1" parent="1">
          <mxGeometry x="600" y="880" width="80" height="20" as="geometry" />
        </mxCell>
        <mxCell id="44iAgMgQiu5mQ_kwNiWo-68" value="K8S Cluster" style="rounded=0;whiteSpace=wrap;html=1;fillColor=#d5e8d4;strokeColor=#82b366;" vertex="1" parent="1">
          <mxGeometry x="160" y="1000" width="780" height="40" as="geometry" />
        </mxCell>
        <mxCell id="44iAgMgQiu5mQ_kwNiWo-71" value="InteractiveJob" style="rounded=0;whiteSpace=wrap;html=1;" vertex="1" parent="1">
          <mxGeometry x="710" y="880" width="80" height="20" as="geometry" />
        </mxCell>
        <mxCell id="44iAgMgQiu5mQ_kwNiWo-72" value="BatchJob" style="rounded=0;whiteSpace=wrap;html=1;" vertex="1" parent="1">
          <mxGeometry x="820" y="880" width="80" height="20" as="geometry" />
        </mxCell>
        <mxCell id="44iAgMgQiu5mQ_kwNiWo-73" value="CronJob" style="rounded=0;whiteSpace=wrap;html=1;" vertex="1" parent="1">
          <mxGeometry x="270" y="880" width="80" height="20" as="geometry" />
        </mxCell>
        <mxCell id="44iAgMgQiu5mQ_kwNiWo-74" value="DagsterJob" style="rounded=0;whiteSpace=wrap;html=1;" vertex="1" parent="1">
          <mxGeometry x="430" y="940" width="80" height="20" as="geometry" />
        </mxCell>
        <mxCell id="44iAgMgQiu5mQ_kwNiWo-76" style="edgeStyle=orthogonalEdgeStyle;rounded=0;orthogonalLoop=1;jettySize=auto;html=1;entryX=0.5;entryY=0;entryDx=0;entryDy=0;" edge="1" parent="1" source="44iAgMgQiu5mQ_kwNiWo-65" target="44iAgMgQiu5mQ_kwNiWo-74">
          <mxGeometry relative="1" as="geometry" />
        </mxCell>
        <mxCell id="44iAgMgQiu5mQ_kwNiWo-77" style="edgeStyle=orthogonalEdgeStyle;rounded=0;orthogonalLoop=1;jettySize=auto;html=1;entryX=0.192;entryY=-0.077;entryDx=0;entryDy=0;entryPerimeter=0;" edge="1" parent="1" source="44iAgMgQiu5mQ_kwNiWo-73" target="44iAgMgQiu5mQ_kwNiWo-68">
          <mxGeometry relative="1" as="geometry" />
        </mxCell>
        <mxCell id="44iAgMgQiu5mQ_kwNiWo-80" value="" style="edgeStyle=orthogonalEdgeStyle;rounded=0;orthogonalLoop=1;jettySize=auto;html=1;entryX=0.5;entryY=0;entryDx=0;entryDy=0;" edge="1" parent="1" source="44iAgMgQiu5mQ_kwNiWo-78" target="44iAgMgQiu5mQ_kwNiWo-64">
          <mxGeometry relative="1" as="geometry" />
        </mxCell>
        <mxCell id="44iAgMgQiu5mQ_kwNiWo-78" value="ExpJob" style="rounded=0;whiteSpace=wrap;html=1;" vertex="1" parent="1">
          <mxGeometry x="170" y="880" width="80" height="20" as="geometry" />
        </mxCell>
        <mxCell id="44iAgMgQiu5mQ_kwNiWo-81" style="edgeStyle=orthogonalEdgeStyle;rounded=0;orthogonalLoop=1;jettySize=auto;html=1;entryX=0.064;entryY=-0.005;entryDx=0;entryDy=0;entryPerimeter=0;" edge="1" parent="1" source="44iAgMgQiu5mQ_kwNiWo-64" target="44iAgMgQiu5mQ_kwNiWo-68">
          <mxGeometry relative="1" as="geometry" />
        </mxCell>
        <mxCell id="44iAgMgQiu5mQ_kwNiWo-82" style="edgeStyle=orthogonalEdgeStyle;rounded=0;orthogonalLoop=1;jettySize=auto;html=1;entryX=0.397;entryY=-0.029;entryDx=0;entryDy=0;entryPerimeter=0;" edge="1" parent="1" source="44iAgMgQiu5mQ_kwNiWo-74" target="44iAgMgQiu5mQ_kwNiWo-68">
          <mxGeometry relative="1" as="geometry" />
        </mxCell>
        <mxCell id="44iAgMgQiu5mQ_kwNiWo-83" style="edgeStyle=orthogonalEdgeStyle;rounded=0;orthogonalLoop=1;jettySize=auto;html=1;entryX=0.757;entryY=0.027;entryDx=0;entryDy=0;entryPerimeter=0;" edge="1" parent="1" source="44iAgMgQiu5mQ_kwNiWo-71" target="44iAgMgQiu5mQ_kwNiWo-68">
          <mxGeometry relative="1" as="geometry" />
        </mxCell>
        <mxCell id="44iAgMgQiu5mQ_kwNiWo-84" style="edgeStyle=orthogonalEdgeStyle;rounded=0;orthogonalLoop=1;jettySize=auto;html=1;entryX=0.897;entryY=-0.053;entryDx=0;entryDy=0;entryPerimeter=0;" edge="1" parent="1" source="44iAgMgQiu5mQ_kwNiWo-72" target="44iAgMgQiu5mQ_kwNiWo-68">
          <mxGeometry relative="1" as="geometry" />
        </mxCell>
        <mxCell id="44iAgMgQiu5mQ_kwNiWo-85" style="edgeStyle=orthogonalEdgeStyle;rounded=0;orthogonalLoop=1;jettySize=auto;html=1;entryX=0.616;entryY=0.019;entryDx=0;entryDy=0;entryPerimeter=0;" edge="1" parent="1" source="44iAgMgQiu5mQ_kwNiWo-67" target="44iAgMgQiu5mQ_kwNiWo-68">
          <mxGeometry relative="1" as="geometry" />
        </mxCell>
      </root>
    </mxGraphModel>
  </diagram>
</mxfile>
